<svg xmlns="http://www.w3.org/2000/svg" xmlns:xlink="http://www.w3.org/1999/xlink" width="106" height="106" viewBox="0 0 106 106">
  <defs>
    <linearGradient id="linear-gradient" x1="0.819" y1="0.82" x2="0.267" y2="0.243" gradientUnits="objectBoundingBox">
      <stop offset="0" stop-color="#2648fb" stop-opacity="0"/>
      <stop offset="1" stop-color="#2648fb" stop-opacity="0.4"/>
    </linearGradient>
  </defs>
  <path id="bg_img01" d="M100.322,60.511c-23.031,6.578-33.232,16.779-39.81,39.81a7.808,7.808,0,0,1-15.023,0C38.91,77.29,28.709,67.089,5.678,60.511a7.808,7.808,0,0,1,0-15.023c23.031-6.578,33.232-16.779,39.81-39.81a7.808,7.808,0,0,1,15.023,0c6.578,23.031,16.779,33.232,39.81,39.81a7.808,7.808,0,0,1,0,15.023" transform="translate(0 0.001)" fill="url(#linear-gradient)"/>
</svg>
