<svg xmlns="http://www.w3.org/2000/svg" xmlns:xlink="http://www.w3.org/1999/xlink" width="20" height="20" viewBox="0 0 20 20">
  <defs>
    <clipPath id="clip-path">
      <rect id="사각형_938" data-name="사각형 938" width="20" height="20" transform="translate(137 2)" fill="#fff"/>
    </clipPath>
  </defs>
  <g id="ic_pen" transform="translate(-137 -2)" clip-path="url(#clip-path)">
    <path id="패스_252" data-name="패스 252" d="M4.265,6.481,4.041,7A.457.457,0,0,1,3.2,7l-.223-.514A3.957,3.957,0,0,0,.966,4.434L.279,4.127a.483.483,0,0,1,0-.876l.649-.29A3.961,3.961,0,0,0,2.964.846L3.193.291a.457.457,0,0,1,.852,0l.229.556A3.961,3.961,0,0,0,6.311,2.961l.649.29a.483.483,0,0,1,0,.876l-.687.307A3.957,3.957,0,0,0,4.265,6.481Zm1.466,7.9c.159-.53.337-1.054.547-1.621C8.138,7.734,11.237,4.62,16.3,3.832a7.61,7.61,0,0,1-1.291,2.153L14.1,6.9,12.822,8.182,14.14,9.5a7.237,7.237,0,0,1-5.316,3.69A6.544,6.544,0,0,0,5.731,14.38ZM16.286,9.089l-.9-.909.907-.912Q17.644,5.9,19,1.815C5.71,1.815,3.7,14.022,2.772,19.651L2.714,20H4.522q.9-4.546,4.525-5A9,9,0,0,0,16.286,9.089Z" transform="translate(138 2)" fill="#fff"/>
  </g>
</svg>
