<svg xmlns="http://www.w3.org/2000/svg" width="20" height="20" viewBox="0 0 20 20">
  <path id="ic_send" d="M9.6,15.39,4.416,13.147a3.18,3.18,0,0,1-1.441-1.228A3.232,3.232,0,0,1,3.13,8.306a3.171,3.171,0,0,1,1.544-1.1L18.308,2.664a3.176,3.176,0,0,1,4.03,2.018,3.141,3.141,0,0,1-.007,2L17.785,20.32A3.134,3.134,0,0,1,14.9,22.495a3.148,3.148,0,0,1-3.057-1.918L9.605,15.389ZM14.951,8.83a.857.857,0,1,1,1.213,1.212l-4.895,4.895L13.414,19.9a1.474,1.474,0,0,0,2.749-.117L20.708,6.151a1.474,1.474,0,0,0-1.865-1.865L5.21,8.83a1.474,1.474,0,0,0-.117,2.749l4.964,2.145L14.951,8.83Z" transform="translate(-2.497 -2.498)" fill="#fff" fill-rule="evenodd"/>
</svg>
