<svg xmlns="http://www.w3.org/2000/svg" xmlns:xlink="http://www.w3.org/1999/xlink" width="441" height="320" viewBox="0 0 441 320">
  <defs>
    <clipPath id="clip-path">
      <rect id="사각형_113" data-name="사각형 113" width="441" height="320" transform="translate(1418 1100)" fill="#f79d00"/>
    </clipPath>
    <clipPath id="clip-path-2">
      <path id="사각형_104" data-name="사각형 104" d="M0,0H430a0,0,0,0,1,0,0V280a40,40,0,0,1-40,40H0a0,0,0,0,1,0,0V0A0,0,0,0,1,0,0Z" transform="translate(1)" fill="none"/>
    </clipPath>
    <linearGradient id="linear-gradient" x1="0.11" y1="0.254" x2="0.397" y2="0.171" gradientUnits="objectBoundingBox">
      <stop offset="0" stop-color="#f79d00"/>
      <stop offset="0.715" stop-color="#fcd35a"/>
      <stop offset="1" stop-color="#fcd35a"/>
    </linearGradient>
    <clipPath id="clip-path-3">
      <rect id="사각형_112" data-name="사각형 112" width="264.447" height="274.596" fill="none"/>
    </clipPath>
    <linearGradient id="linear-gradient-2" x1="0.635" y1="0.805" x2="1" y2="1.363" gradientUnits="objectBoundingBox">
      <stop offset="0" stop-color="#fff"/>
      <stop offset="1" stop-color="#c0c9f9"/>
    </linearGradient>
    <linearGradient id="linear-gradient-3" x1="0.199" y1="-0.19" x2="0.572" y2="1.086" gradientUnits="objectBoundingBox">
      <stop offset="0" stop-color="#fff"/>
      <stop offset="1" stop-color="#d8def8"/>
    </linearGradient>
    <linearGradient id="linear-gradient-4" x1="0.994" y1="0.928" x2="0.123" y2="0.128" gradientUnits="objectBoundingBox">
      <stop offset="0" stop-color="#3255e8"/>
      <stop offset="1" stop-color="#6484eb"/>
    </linearGradient>
  </defs>
  <g id="img02" transform="translate(-1418 -1100)" clip-path="url(#clip-path)">
    <g id="그룹_69" data-name="그룹 69" transform="translate(1428.6 1100)" clip-path="url(#clip-path-2)">
      <path id="패스_129" data-name="패스 129" d="M450.184,120.389c-12.882-12.367-19.969-27.4-31.378-40.518s-29.663-24.976-51-24.539c-33.379.671-52.722,26.906-84.648,30.087-27.949,2.79-57.045-9.59-72.952-25.432-9.518-9.5-15.295-20.673-23.255-30.9S167.888,9.058,152.508,5.452C126.222-.7,92.856,8.96,72.124,22.272c-14.493,9.3-24.552,21.3-37.245,31.965-9.844,8.28-17.8,19.056-30.465,24.839C2.9,79.767,1.441,80.419,0,81.045v89.075a6.63,6.63,0,0,0,4.342,1.78c12.622.678,24.519-6.1,34.044-14.414,17.589-15.353,29.461-36.046,44.071-54.261S116.45,68.3,139.717,66.389c13.293-1.1,26.482,2.8,38.993,7.432,20.178,7.478,33.334,20.49,50.617,32.056,18.769,12.55,37.813,24.167,59.7,30.472,22.9,6.591,49.15,7.334,70.859-1.571,8.332-3.416,15.77-8.123,23.939-11.781s17.524-6.3,26.7-5.04c12.68,1.747,22.055,10.34,30.341,18.4,9.368,9.108,17.6,19.78,29.611,26.312V135.834c-6.4-4.811-13.828-9.225-20.295-15.444" transform="translate(-39.833 27.575)" fill="url(#linear-gradient)"/>
      <path id="패스_131" data-name="패스 131" d="M259.863,75c-6.522-6.623-11.82-14.059-19.031-20.219-7.353-6.29-13.994-9.248-24.323-11.565-34.86-7.834-71.681,6.088-107.7,3.605-23.2-1.6-44.4-10.715-51.486-30.31C55.382,11.161,55.02,5.524,54,0H30.952c3.986,6.736,7.686,13.6,12.61,19.922,17.653,22.69,51.545,36.137,84.2,33.393,14.885-1.247,29.218-5.548,44.12-6.652,19.88-1.479,40.325,3.006,56.659,12.42,20.1,11.582,33,29.509,47.221,46.211V89.9q-8.295-7.19-15.895-14.9" transform="translate(154.894 0.002)" fill="rgba(95,220,141,0.98)"/>
      <path id="패스_183" data-name="패스 183" d="M259.863,30.293c-6.522,6.623-11.82,14.059-19.031,20.219-7.353,6.29-13.994,9.248-24.323,11.565-34.86,7.835-71.681-6.088-107.7-3.605-23.2,1.6-44.4,10.715-51.486,30.31C55.382,94.133,55.02,99.77,54,105.293H30.952c3.986-6.736,7.686-13.6,12.61-19.922,17.653-22.69,51.545-36.137,84.2-33.393,14.885,1.247,29.218,5.548,44.12,6.652,19.88,1.479,40.325-3.006,56.659-12.42,20.1-11.582,33-29.509,47.221-46.211V15.4q-8.295,7.19-15.895,14.9" transform="translate(21.448 240.707)" fill="#fcd35a"/>
    </g>
    <g id="그룹_74" data-name="그룹 74" transform="translate(1537.053 1163.384)" clip-path="url(#clip-path-3)">
      <path id="패스_184" data-name="패스 184" d="M26.156,57.838a10.554,10.554,0,0,0,2.732,1.87c4.554,2.19,9.9,1.588,14.887.754C58.58,57.984,73.06,53.886,87.5,49.8c7.069-2,4.76-12.344-.585-15.754-3.844-2.456-9.563-1.973-13.743-1.545a244.258,244.258,0,0,0-34.311,6c-5.215,1.307-11.179,3.171-14.242,7.948a8.848,8.848,0,0,0,1.534,11.39" transform="translate(102.56 142.145)" fill="#c3d7ff"/>
      <path id="패스_185" data-name="패스 185" d="M84.261,174.8c.916,2.282,1.827,4.565,2.716,6.858a6.145,6.145,0,0,0,1.594,2.656,5.738,5.738,0,0,0,3.562.954c6.413.173,12.756-1.155,19.034-2.472l34.7-7.3c2.369-.5,4.977-1.155,6.31-3.171,3.329-5.047-1.144-13.645-1.968-18.871-2.586-16.4-.336-33.118,3.535-49.133,2.277-9.422,5.123-18.7,7.893-27.984,1.952-6.549,4.51-13.895.645-20.124-3.638-5.855-8.327-11.222-12.528-16.719-6.05-7.926-12.225-15.9-19.777-22.471A62.133,62.133,0,0,0,103.408,3.084C93.319.731,82.916.818,72.654,1.772,60.543,2.905,48.5,4.982,36.473,6.76a4.813,4.813,0,0,0-1.111.173c-.8.168-1.805.613-1.507,1.545a.891.891,0,0,0,.2.331A12.421,12.421,0,0,0,37.8,18.123a19.8,19.8,0,0,0-.531,7.178,46.493,46.493,0,0,0,.992,6.8c-5.687,7.525-12.507,13.51-19.787,19.468-3.356,2.749-7.015,5.714-9.476,9.346-2.2,3.242-.119,6.576,2.987,8.267,6.722,3.681,16.068.748,22.747-1.637a49.215,49.215,0,0,0,7.221-3.215q-6.237,7.807-12.48,15.6c-2.526,3.161-5.259,6.234-7.53,9.59-1.74,2.553-3.2,5.654-2.83,8.831.737,6.386,6.869,8.717,12.55,6.993a32,32,0,0,0,4.18-1.6l-1.317,3.784c-1.133,3.258-2.689,6.63-3.209,10.062-.51,3.4.987,5.242,4.4,5.546a22.411,22.411,0,0,0,9.411-1.442c10.81-3.952,16.882-13.661,21.978-23.523.038.347.07.688.1,1.035a1.017,1.017,0,0,0,.325.656,191.413,191.413,0,0,0,3.5,30.006,215.042,215.042,0,0,0,9.487,35.4c1.2,3.193,2.472,6.365,3.741,9.536" transform="translate(35.727 5.058)" fill="url(#linear-gradient-2)"/>
      <path id="패스_186" data-name="패스 186" d="M134.189,105.624H49.407q-4.123-8.75-8.235-17.5L33.983,72.869c-1.892-4.033-12.019-19.348-9.27-22.943,1.052-1.372,2.96-1.686,4.679-1.908A226.412,226.412,0,0,0,80.286,35.191c11.254-4.283,13.347,7.975,18.188,15.575,11.71,18.41,23.452,36.81,35.715,54.857" transform="translate(107.185 151.678)" fill="url(#linear-gradient-3)"/>
      <path id="패스_187" data-name="패스 187" d="M53.136,7.356c-.087-.922-2.624-.862-2.543,0,.8,8.267-7.346,14-14.654,15.212a21.027,21.027,0,0,1-6.646.049c-.445-.065-1.344-.038-1.567.455-.233.51.548.743.889.8A25.689,25.689,0,0,0,42,22.3a18.71,18.71,0,0,0,9.617-7.931,12.246,12.246,0,0,0,1.523-7.015" transform="translate(122.398 29.562)" fill="#c3d7ff"/>
      <path id="패스_188" data-name="패스 188" d="M59.479,26.408h0a6,6,0,0,1-7.769,3.432l-9.184-3.551a6.008,6.008,0,1,1,4.337-11.206l9.184,3.556a6.006,6.006,0,0,1,3.432,7.769" transform="translate(171.037 64.885)" fill="#042abf"/>
      <path id="패스_189" data-name="패스 189" d="M38.1,3.332c9.449,5.486,19.793,9.015,29.779,13.331,9.509,3.681,18.752,8.36,28.19,12.284,38.724,16.117,78.461,29.725,117.12,45.972,5.448,2.288,7.9,5.237,7.367,9.737a2.287,2.287,0,0,1-.1,1.225c-.249.813-.51,1.561-.786,2.255s-.575,1.437-.938,2.2a2.193,2.193,0,0,1-.754.965c-2.635,3.7-6.43,4.223-12,2.25C166.456,79.539,127.906,62.841,88.423,48.692,78.8,45.244,68.82,42.479,59.311,38.8,49.022,35.269,39,30.91,28.318,28.606a33.085,33.085,0,0,1-5.763-1.545q-.2-.081-.407-.179c-3.09-1.4-5.134-4.619-7.27-7.221a105.923,105.923,0,0,0-8.1-8.826c-.488-.472-4.1-3.47-5.492-5.741l-.027-.027a2.084,2.084,0,0,1-.58-.813.9.9,0,0,1,.081-.846.9.9,0,0,1,.51-.678,2.093,2.093,0,0,1,.987-.206h.027c2.564-.748,7.248-.531,7.926-.553A105.243,105.243,0,0,0,22.143.893C25.336.437,28.838-.5,31.967.334c.136.033.276.076.412.119A29.915,29.915,0,0,1,38.1,3.332" transform="translate(2.708 0.001)" fill="url(#linear-gradient-4)"/>
      <path id="패스_190" data-name="패스 190" d="M34.669.334a40.139,40.139,0,0,1-.531,4.95,57.544,57.544,0,0,1-5.324,15.982,34.738,34.738,0,0,1-3.551,5.8,3.9,3.9,0,0,1-.412-.173c-3.09-1.4-5.128-4.624-7.27-7.221a105.086,105.086,0,0,0-8.094-8.826C9,10.364,5.389,7.366,4,5.094l-.027-.027L.792,3.837A1.318,1.318,0,0,1,.1,2.107a1.411,1.411,0,0,1,.694-.77,1.224,1.224,0,0,1,.987-.043L4.961,2.525h.027c2.564-.748,7.248-.531,7.926-.553A105.13,105.13,0,0,0,24.846.893C28.039.437,31.541-.5,34.669.334" transform="translate(-0.001 0.001)" fill="#042abf"/>
      <path id="패스_191" data-name="패스 191" d="M85.336,76.834a4.469,4.469,0,0,0,.445-2.315c-.233-2.223-3.15-4.684-4.359-6.549-4.2-6.473-8.343-12.995-12.5-19.495Q62.676,38.7,56.5,28.883C52.516,22.529,48.916,16.04,44.682,9.817A14.831,14.831,0,0,0,37.57,3.794c-3.209-1.16-6.733-1.019-10.078-.732A28.468,28.468,0,0,0,18.818,4.77a8.231,8.231,0,0,0-5.15,6.413c-.51,3.236.4,6.636,1.073,9.78q1.122,5.18,2.646,10.268a179.853,179.853,0,0,0,7.8,20.893c1.2,2.721,3.166,5.269,4.657,7.888,1.231,2.158,2.553,4.266,3.762,6.44,1.285,2.309,2.076,4.955,3.432,7.194A41.712,41.712,0,0,1,42.7,87.454a34.706,34.706,0,0,1,.6,4.847c.043.8,2.017.873,2.456.276a39.818,39.818,0,0,0,20.785-.515A31.529,31.529,0,0,0,82.062,81.415a24.456,24.456,0,0,0,3.274-4.581" transform="translate(59.768 12.648)" fill="#fff"/>
      <path id="패스_192" data-name="패스 192" d="M26.446,16.089v-.016l-.081-.038a.293.293,0,0,0,.081.054" transform="translate(116.566 70.894)" fill="#fff"/>
      <path id="패스_193" data-name="패스 193" d="M26.446,16.089v-.016l-.081-.038a.293.293,0,0,0,.081.054" transform="translate(116.566 70.894)" fill="#4386fb"/>
      <path id="패스_194" data-name="패스 194" d="M101.376,89.759c-3.058-2.011-6.218-3.93-9.075-6.224A33,33,0,0,1,85.394,75.5c-4.2-6.478-8.338-12.995-12.5-19.5S64.577,42.958,60.473,36.409q-2.586-4.123-5.134-8.257a1.621,1.621,0,0,0,.3-.022l10.837-1.594c1.285-.19,2.586-.385,3.871-.661a.675.675,0,0,0,.119.087,1.6,1.6,0,0,0,.672.19,18.874,18.874,0,0,0,1.756,3.4q1.48,2.391,3.014,4.749c1.361,2.1,2.434,3.589,4.868,4.483.4-1.583-1.491-3.41-2.282-4.619-.981-1.507-1.941-3.02-2.895-4.538a18.445,18.445,0,0,1-2.168-4.2c5.692-2.852,7.6-9.52,8.9-15.358A11.559,11.559,0,0,0,82.624,5.4a4.727,4.727,0,0,0-2.743-3.589,7.351,7.351,0,0,0-1.914-.342c-1.122-.092-2.239-.19-3.361-.282-6.63-.564-1.9,7.286-.791,10.1a14.157,14.157,0,0,1,.748,7.747c-.938,5.036-4.89,5.687-9.259,6.327q-5.164.764-10.333,1.523a2.311,2.311,0,0,0-.363.087l-.293-.466c-1.876-3.052-3.643-6.2-5.66-9.156a14.793,14.793,0,0,0-7.113-6.028c-3.209-1.16-6.733-1.019-10.078-.726A28.267,28.267,0,0,0,22.8,12.3a8.237,8.237,0,0,0-5.156,6.413c-.51,3.236.4,6.636,1.079,9.785q1.122,5.18,2.646,10.262a134.673,134.673,0,0,0,7.3,19.012,1.744,1.744,0,0,0-1.3.32L19.5,65.044c-.434.385.076.77.455.889a1.981,1.981,0,0,0,1.735-.233q3.781-3.342,7.557-6.69c2.987,6.142,6.587,11.921,9.943,17.858.07.119.136.239.206.358q-2.448,2.944-4.9,5.877a13.458,13.458,0,0,0-3.844-5.92,16.7,16.7,0,0,0-10.539-4,21.778,21.778,0,0,0-6.89.846c-.417.119-.84.488-.455.884a1.953,1.953,0,0,0,1.74.233,15.207,15.207,0,0,1,12.257,1.393,12.219,12.219,0,0,1,5.671,9.032l-2.488,2.982C27,92.085,24.161,95.777,20.968,99.1a25.6,25.6,0,0,1-5.492,4.5c-.445.26-.461.661,0,.922a2.081,2.081,0,0,0,1.794,0c3.741-2.19,6.6-5.41,9.352-8.7q3.139-3.749,6.262-7.508a10.508,10.508,0,0,1,6.587,3.741,10.822,10.822,0,0,1,2.038,3.714,19.945,19.945,0,0,1,.618,5.557c.016.9,2.559.895,2.537,0a20.154,20.154,0,0,0-.759-6.077,11.677,11.677,0,0,0-2.477-4.115,12.876,12.876,0,0,0-7.557-4c.114-.141.228-.276.347-.412.455-.087.819-.3.8-.634,0-.108-.011-.206-.016-.309.4-.482.8-.96,1.2-1.437q2.139-2.57,4.288-5.145A55.9,55.9,0,0,1,46.67,94.98a35.545,35.545,0,0,1,.6,4.847c.038.8,2.011.873,2.45.276a39.783,39.783,0,0,0,20.79-.515A31.514,31.514,0,0,0,86.034,88.941a26.678,26.678,0,0,0,2.759-4.364c.157-.314.347-.678.51-1.063a57.231,57.231,0,0,0,5.828,4.234c1.48.981,2.965,1.952,4.451,2.927a2.009,2.009,0,0,0,1.794,0c.493-.271.428-.634,0-.916M39.742,60.236c-1.756,2.841-2.787,6.05-2.266,9.053-1.063-1.61-1.979-3.35-2.906-5.047A132.781,132.781,0,0,1,20.491,24.689c-.537-2.955-.938-6.381.867-9,1.513-2.2,4.239-2.993,6.739-3.383a36.212,36.212,0,0,1,9.015-.542,11.392,11.392,0,0,1,4.315,1.209,11.9,11.9,0,0,1,3.453,2.938,69.593,69.593,0,0,1,5.4,8.376q3.017,4.92,6.072,9.812,3.074,4.936,6.191,9.845c1.106,1.74,5.909,7.075,1.29,6.359a25.825,25.825,0,0,0-17.153,2.933,21.966,21.966,0,0,0-6.945,7M87.216,81.861a.261.261,0,0,1,0,.092,3.9,3.9,0,0,1-.038.434,5.849,5.849,0,0,1-.342.8c-.287.645-.6,1.274-.938,1.892A26.973,26.973,0,0,1,83.583,88.6a28.673,28.673,0,0,1-6.1,5.8A31.057,31.057,0,0,1,60.364,99.93a38.131,38.131,0,0,1-10.647-1.263c-.146-.038-1.225-6.733-1.431-7.432A54.2,54.2,0,0,0,45.3,83.493c-1.415-3.036-4.3-5.839-4.57-9.33-.276-3.708,3.426-6.7,6.8-7.216,2.6-.4,5.34-.125,7.79-1.079,2.358-.927,4.136-2.873,6.018-4.576,2.678-2.434,8.289-5.638,11.1-1.827,3.058,4.142,5.616,8.766,8.4,13.1a66.2,66.2,0,0,0,6,8.555l-.038.06c-.13.287.07.493.331.623-.054-.065.054-.087.081.038a1.864,1.864,0,0,0,.428.125,1.555,1.555,0,0,1-.428-.108" transform="translate(55.796 5.122)" fill="#c3d7ff"/>
      <path id="패스_199" data-name="패스 199" d="M9.931,0,8.246,8.258,0,9.94l8.246,1.683,1.685,8.259,1.689-8.277L19.774,9.94,11.62,8.277Z" transform="translate(44.948 157.175)" fill="#fff"/>
      <path id="패스_200" data-name="패스 200" d="M17.075,0l-2.9,14.2L0,17.091l14.178,2.894,2.9,14.2,2.9-14.232L34,17.091l-14.02-2.859Z" transform="translate(65.948 174.296)" fill="#fff"/>
      <path id="패스_201" data-name="패스 201" d="M17.075,0l-2.9,14.2L0,17.091l14.178,2.894,2.9,14.2,2.9-14.232L34,17.091l-14.02-2.859Z" transform="translate(230.448 134.523)" fill="#fff"/>
    </g>
  </g>
</svg>
