<svg xmlns="http://www.w3.org/2000/svg" xmlns:xlink="http://www.w3.org/1999/xlink" width="441" height="320" viewBox="0 0 441 320">
  <defs>
    <clipPath id="clip-path">
      <rect id="사각형_114" data-name="사각형 114" width="441" height="320" transform="translate(501 1100)" fill="#2942c4"/>
    </clipPath>
    <linearGradient id="linear-gradient" x1="0.69" y1="0.3" x2="0.423" y2="1.07" gradientUnits="objectBoundingBox">
      <stop offset="0" stop-color="#c4a9f1"/>
      <stop offset="0" stop-color="#c2abf1"/>
      <stop offset="1" stop-color="#9ad7f7"/>
      <stop offset="1"/>
    </linearGradient>
    <linearGradient id="linear-gradient-2" x1="0.647" y1="0.368" x2="0.283" y2="0.812" gradientUnits="objectBoundingBox">
      <stop offset="0" stop-color="#ff93a5"/>
      <stop offset="1" stop-color="#e9bb65"/>
    </linearGradient>
    <linearGradient id="linear-gradient-3" x1="0.163" y1="1.463" x2="0.838" y2="-0.462" gradientUnits="objectBoundingBox">
      <stop offset="0.3" stop-color="#3467f3"/>
      <stop offset="1" stop-color="#4f86f3"/>
    </linearGradient>
    <linearGradient id="linear-gradient-4" x1="2.526" y1="0.838" x2="-1.535" y2="0.225" gradientUnits="objectBoundingBox">
      <stop offset="0" stop-color="#c6d2f0"/>
      <stop offset="1" stop-color="#f8fafd"/>
    </linearGradient>
    <linearGradient id="linear-gradient-5" y1="0.5" x2="1" y2="0.5" gradientUnits="objectBoundingBox">
      <stop offset="0.3" stop-color="#477df3"/>
      <stop offset="1" stop-color="#366af3"/>
    </linearGradient>
    <linearGradient id="linear-gradient-6" x1="0" y1="0.5" x2="1" y2="0.5" xlink:href="#linear-gradient-5"/>
    <linearGradient id="linear-gradient-7" x1="0.5" y1="1" x2="0.5" gradientUnits="objectBoundingBox">
      <stop offset="0.3" stop-color="#308dd9"/>
      <stop offset="1" stop-color="#4aacee"/>
    </linearGradient>
    <linearGradient id="linear-gradient-8" x1="0.626" y1="-0.051" x2="0.374" y2="1.051" gradientUnits="objectBoundingBox">
      <stop offset="0" stop-color="#4aacee"/>
      <stop offset="0.7" stop-color="#308dd9"/>
    </linearGradient>
    <linearGradient id="linear-gradient-10" x1="0.556" y1="-0.164" x2="0.444" y2="1.164" gradientUnits="objectBoundingBox">
      <stop offset="0.5" stop-color="#fff"/>
      <stop offset="1" stop-color="#beccee"/>
    </linearGradient>
    <linearGradient id="linear-gradient-11" y1="0.5" x2="1.001" y2="0.5" gradientUnits="objectBoundingBox">
      <stop offset="0" stop-color="#c1b2fe"/>
      <stop offset="0.74" stop-color="#a194f6"/>
    </linearGradient>
    <linearGradient id="linear-gradient-12" x1="0.565" y1="-0.132" x2="0.435" y2="1.132" gradientUnits="objectBoundingBox">
      <stop offset="0.2" stop-color="#fff"/>
      <stop offset="1" stop-color="#beccee"/>
    </linearGradient>
    <linearGradient id="linear-gradient-13" x1="1.027" y1="0.008" x2="-0.027" y2="0.991" xlink:href="#linear-gradient-11"/>
    <linearGradient id="linear-gradient-14" x1="0.555" y1="-0.169" x2="0.445" y2="1.169" xlink:href="#linear-gradient-12"/>
    <linearGradient id="linear-gradient-15" x1="0.663" y1="-0.034" x2="0.337" y2="1.034" xlink:href="#linear-gradient-11"/>
  </defs>
  <g id="img02" transform="translate(-501 -1100)" clip-path="url(#clip-path)">
    <path id="패스_198" data-name="패스 198" d="M26.345,15.89C20.3,17.617,17.618,20.3,15.89,26.344a2.05,2.05,0,0,1-3.945,0C10.218,20.3,7.539,17.617,1.491,15.89a2.05,2.05,0,0,1,0-3.945C7.539,10.217,10.218,7.538,11.945,1.49a2.05,2.05,0,0,1,3.945,0c1.727,6.048,4.406,8.727,10.454,10.454a2.05,2.05,0,0,1,0,3.945" transform="translate(520 1257.651)" fill="url(#linear-gradient)"/>
    <path id="패스_198-2" data-name="패스 198" d="M20.821,12.558c-4.78,1.365-6.9,3.482-8.262,8.262a1.62,1.62,0,0,1-3.118,0c-1.365-4.78-3.482-6.9-8.263-8.262a1.62,1.62,0,0,1,0-3.118c4.78-1.365,6.9-3.482,8.263-8.262a1.62,1.62,0,0,1,3.118,0c1.365,4.78,3.482,6.9,8.262,8.262a1.62,1.62,0,0,1,0,3.118" transform="translate(734 1134.001)" fill="url(#linear-gradient-2)"/>
    <g id="img" transform="translate(526.01 1122)">
      <g id="그룹_507" data-name="그룹 507">
        <g id="그룹_503" data-name="그룹 503">
          <g id="그룹_498" data-name="그룹 498">
            <rect id="사각형_673" data-name="사각형 673" width="24.6" height="8.63" transform="translate(293)" fill="url(#linear-gradient-3)"/>
            <rect id="사각형_674" data-name="사각형 674" width="5.78" height="8.63" transform="translate(293)" fill="#1862e3"/>
          </g>
          <g id="그룹_499" data-name="그룹 499">
            <rect id="사각형_675" data-name="사각형 675" width="34.62" height="8.63" transform="translate(288 5.78)" fill="#5086f3"/>
            <rect id="사각형_676" data-name="사각형 676" width="8.29" height="8.63" transform="translate(288 5.78)" fill="#1862e3"/>
          </g>
          <path id="패스_235" data-name="패스 235" d="M326.57,103.25H284.18V11.74l42.27-.12Z" fill="#94b5f6"/>
          <path id="패스_236" data-name="패스 236" d="M326.41,11.65,305.61,96.6l-.17,2.09v199.8h36.34V96.6Z" fill="url(#linear-gradient-4)"/>
          <g id="그룹_500" data-name="그룹 500">
            <rect id="사각형_677" data-name="사각형 677" width="32.46" height="201.88" transform="translate(273.15 96.6)" fill="url(#linear-gradient-5)"/>
            <path id="패스_237" data-name="패스 237" d="M284.2,11.74l-15.71,89.27,37.12-4.41Z" fill="url(#linear-gradient-6)"/>
          </g>
          <g id="그룹_501" data-name="그룹 501">
            <rect id="사각형_678" data-name="사각형 678" width="1.5" height="27.8" transform="translate(319.57 16.68) rotate(90)" fill="#377bfc"/>
            <rect id="사각형_679" data-name="사각형 679" width="1.5" height="24.73" transform="translate(318.04 21.11) rotate(90)" fill="#377bfc"/>
            <rect id="사각형_680" data-name="사각형 680" width="1.5" height="22.71" transform="translate(317.02 25.54) rotate(90)" fill="#377bfc"/>
            <rect id="사각형_681" data-name="사각형 681" width="1.5" height="20.29" transform="translate(315.82 29.96) rotate(90)" fill="#377bfc"/>
            <rect id="사각형_682" data-name="사각형 682" width="1.5" height="17.61" transform="translate(314.48 34.39) rotate(90)" fill="#377bfc"/>
            <rect id="사각형_683" data-name="사각형 683" width="1.5" height="16.23" transform="translate(313.79 38.81) rotate(90)" fill="#377bfc"/>
            <rect id="사각형_684" data-name="사각형 684" width="1.5" height="14.07" transform="translate(312.71 43.24) rotate(90)" fill="#377bfc"/>
            <rect id="사각형_685" data-name="사각형 685" width="1.5" height="13.08" transform="translate(312.21 47.66) rotate(90)" fill="#377bfc"/>
            <rect id="사각형_686" data-name="사각형 686" width="1.5" height="11.83" transform="translate(311.59 52.09) rotate(90)" fill="#377bfc"/>
            <rect id="사각형_687" data-name="사각형 687" width="1.5" height="10.58" transform="translate(310.96 56.51) rotate(90)" fill="#377bfc"/>
            <rect id="사각형_688" data-name="사각형 688" width="1.5" height="9.15" transform="translate(310.25 60.94) rotate(90)" fill="#377bfc"/>
            <rect id="사각형_689" data-name="사각형 689" width="1.5" height="8.16" transform="translate(309.75 65.37) rotate(90)" fill="#377bfc"/>
            <rect id="사각형_690" data-name="사각형 690" width="1.5" height="7.25" transform="translate(309.3 69.79) rotate(90)" fill="#377bfc"/>
            <rect id="사각형_691" data-name="사각형 691" width="1.5" height="6.09" transform="translate(308.72 74.22) rotate(90)" fill="#377bfc"/>
          </g>
          <g id="그룹_502" data-name="그룹 502">
            <rect id="사각형_692" data-name="사각형 692" width="4.63" height="1.5" transform="translate(322.25 44.23)" fill="#9cbbf7"/>
            <rect id="사각형_693" data-name="사각형 693" width="5.18" height="1.5" transform="translate(321.97 48.95)" fill="#9cbbf7"/>
            <rect id="사각형_694" data-name="사각형 694" width="6.18" height="1.5" transform="translate(321.47 53.67)" fill="#9cbbf7"/>
            <rect id="사각형_695" data-name="사각형 695" width="6.93" height="1.5" transform="translate(321.1 58.39)" fill="#9cbbf7"/>
            <rect id="사각형_696" data-name="사각형 696" width="7.45" height="1.5" transform="translate(320.84 63.11)" fill="#9cbbf7"/>
            <rect id="사각형_697" data-name="사각형 697" width="8.51" height="1.5" transform="translate(320.31 67.83)" fill="#9cbbf7"/>
            <rect id="사각형_698" data-name="사각형 698" width="9.16" height="1.5" transform="translate(319.98 72.55)" fill="#9cbbf7"/>
            <rect id="사각형_699" data-name="사각형 699" width="10.42" height="1.5" transform="translate(319.35 77.27)" fill="#9cbbf7"/>
            <rect id="사각형_700" data-name="사각형 700" width="11.46" height="1.5" transform="translate(318.83 81.99)" fill="#9cbbf7"/>
            <rect id="사각형_701" data-name="사각형 701" width="12.98" height="1.5" transform="translate(318.07 86.71)" fill="#9cbbf7"/>
            <rect id="사각형_702" data-name="사각형 702" width="14.37" height="1.5" transform="translate(317.38 91.43)" fill="#9cbbf7"/>
            <rect id="사각형_703" data-name="사각형 703" width="15.64" height="1.5" transform="translate(316.74 96.14)" fill="#9cbbf7"/>
            <rect id="사각형_704" data-name="사각형 704" width="17.58" height="1.5" transform="translate(315.77 100.86)" fill="#9cbbf7"/>
            <rect id="사각형_705" data-name="사각형 705" width="19.39" height="1.5" transform="translate(314.87 105.58)" fill="#9cbbf7"/>
            <rect id="사각형_706" data-name="사각형 706" width="21.27" height="1.5" transform="translate(313.93 110.3)" fill="#9cbbf7"/>
            <rect id="사각형_707" data-name="사각형 707" width="21.79" height="1.5" transform="translate(313.67 115.02)" fill="#9cbbf7"/>
            <rect id="사각형_708" data-name="사각형 708" width="21.92" height="1.5" transform="translate(313.6 119.74)" fill="#9cbbf7"/>
            <rect id="사각형_709" data-name="사각형 709" width="21.92" height="1.5" transform="translate(313.6 124.46)" fill="#9cbbf7"/>
            <rect id="사각형_710" data-name="사각형 710" width="21.92" height="1.5" transform="translate(313.6 129.18)" fill="#9cbbf7"/>
            <rect id="사각형_711" data-name="사각형 711" width="21.92" height="1.5" transform="translate(313.6 133.9)" fill="#9cbbf7"/>
            <rect id="사각형_712" data-name="사각형 712" width="21.92" height="1.5" transform="translate(313.6 138.62)" fill="#9cbbf7"/>
            <rect id="사각형_713" data-name="사각형 713" width="21.92" height="1.5" transform="translate(313.6 143.34)" fill="#9cbbf7"/>
            <rect id="사각형_714" data-name="사각형 714" width="21.92" height="1.5" transform="translate(313.6 148.06)" fill="#9cbbf7"/>
            <rect id="사각형_715" data-name="사각형 715" width="21.92" height="1.5" transform="translate(313.6 152.78)" fill="#9cbbf7"/>
            <rect id="사각형_716" data-name="사각형 716" width="21.92" height="1.5" transform="translate(313.6 157.5)" fill="#9cbbf7"/>
            <rect id="사각형_717" data-name="사각형 717" width="21.92" height="1.5" transform="translate(313.6 162.22)" fill="#9cbbf7"/>
            <rect id="사각형_718" data-name="사각형 718" width="21.92" height="1.5" transform="translate(313.6 166.94)" fill="#9cbbf7"/>
            <rect id="사각형_719" data-name="사각형 719" width="21.92" height="1.5" transform="translate(313.6 171.66)" fill="#9cbbf7"/>
            <rect id="사각형_720" data-name="사각형 720" width="21.92" height="1.5" transform="translate(313.6 176.38)" fill="#9cbbf7"/>
            <rect id="사각형_721" data-name="사각형 721" width="21.92" height="1.5" transform="translate(313.6 181.1)" fill="#9cbbf7"/>
            <rect id="사각형_722" data-name="사각형 722" width="21.92" height="1.5" transform="translate(313.6 185.82)" fill="#9cbbf7"/>
            <rect id="사각형_723" data-name="사각형 723" width="21.92" height="1.5" transform="translate(313.6 190.54)" fill="#9cbbf7"/>
          </g>
        </g>
        <g id="그룹_506" data-name="그룹 506">
          <rect id="사각형_724" data-name="사각형 724" width="35.91" height="181.17" transform="translate(212.93 117.32)" fill="#2556f4"/>
          <path id="패스_238" data-name="패스 238" d="M284.41,298.49H248.2V117.32L284.41,76.4Z" fill="#94b6f7"/>
          <path id="패스_239" data-name="패스 239" d="M248.2,117.41l-.79-1.38,35.77-39.69,1.23.06v5.47l-36.19,36.94Z" fill="#94b6f7"/>
          <g id="그룹_504" data-name="그룹 504">
            <rect id="사각형_725" data-name="사각형 725" width="2.85" height="106.94" transform="translate(218.24 123.69)" fill="#95b7f7"/>
            <rect id="사각형_726" data-name="사각형 726" width="2.85" height="106.94" transform="translate(225.36 123.69)" fill="#95b7f7"/>
            <rect id="사각형_727" data-name="사각형 727" width="2.85" height="106.94" transform="translate(232.75 123.69)" fill="#95b7f7"/>
            <rect id="사각형_728" data-name="사각형 728" width="2.85" height="106.94" transform="translate(239.54 123.69)" fill="#95b7f7"/>
          </g>
          <rect id="사각형_729" data-name="사각형 729" width="35.37" height="7.42" transform="translate(212.85 117.32)" fill="#4f86f3"/>
          <path id="패스_240" data-name="패스 240" d="M248.2,117.41h-36L247.68,76.4h36.73Z" fill="#fff"/>
          <path id="패스_241" data-name="패스 241" d="M248.54,111.9H222.47l27.8-32.24h26.16Z" fill="#a9b7c7"/>
          <path id="패스_242" data-name="패스 242" d="M248.54,111.9H225.96l25.26-29.7,22.67.35Z" fill="#c3cede"/>
          <g id="그룹_505" data-name="그룹 505">
            <rect id="사각형_730" data-name="사각형 730" width="2.85" height="114.84" transform="translate(256.9 116.34)" fill="#fff"/>
            <rect id="사각형_731" data-name="사각형 731" width="2.85" height="121.51" transform="translate(263.11 109.67)" fill="#fff"/>
            <rect id="사각형_732" data-name="사각형 732" width="2.85" height="126.88" transform="translate(269.33 104.29)" fill="#fff"/>
            <rect id="사각형_733" data-name="사각형 733" width="2.85" height="132.51" transform="translate(275.54 98.66)" fill="#fff"/>
          </g>
        </g>
      </g>
      <g id="그룹_518" data-name="그룹 518">
        <g id="그룹_512" data-name="그룹 512">
          <path id="패스_243" data-name="패스 243" d="M70.27,89.78l4.6-3.49h43.49l-4.67,3.49v2.68H70.32Z" fill="#9ad7f7"/>
          <path id="패스_244" data-name="패스 244" d="M113.69,89.78l27.24-25.01,3.24,6.69L115.55,92.78l-1.86-.32-1.64-.58" fill="#7cc6f4"/>
          <rect id="사각형_734" data-name="사각형 734" width="47.57" height="144.78" transform="translate(70.27 89.78)" fill="#9ad7f7"/>
          <path id="패스_245" data-name="패스 245" d="M157.12,234.56H113.69V89.78l34.45-26.15Z" fill="url(#linear-gradient-7)"/>
          <path id="패스_246" data-name="패스 246" d="M113.69,89.78H70.27L104.5,63.84l43.73-.21Z" fill="#7cc6f4"/>
          <rect id="사각형_735" data-name="사각형 735" width="2.85" height="37.81" transform="translate(111.31 8.06)" fill="#9ad7f7"/>
          <rect id="사각형_736" data-name="사각형 736" width="20.62" height="36.36" transform="translate(91.85 45.74)" fill="#9ad7f7"/>
          <path id="패스_247" data-name="패스 247" d="M126.66,71.71,112.48,82.1V45.74h14.18Z" fill="#4aacee"/>
          <g id="그룹_511" data-name="그룹 511">
            <g id="그룹_508" data-name="그룹 508">
              <rect id="사각형_737" data-name="사각형 737" width="2.85" height="47.72" transform="translate(75.41 97.77)" fill="#fff"/>
              <rect id="사각형_738" data-name="사각형 738" width="2.85" height="47.72" transform="translate(82.08 97.77)" fill="#fff"/>
              <rect id="사각형_739" data-name="사각형 739" width="2.85" height="47.72" transform="translate(88.75 97.77)" fill="#fff"/>
              <rect id="사각형_740" data-name="사각형 740" width="2.85" height="47.72" transform="translate(95.41 97.77)" fill="#fff"/>
              <rect id="사각형_741" data-name="사각형 741" width="2.85" height="47.72" transform="translate(102.08 97.77)" fill="#fff"/>
            </g>
            <g id="그룹_509" data-name="그룹 509">
              <rect id="사각형_742" data-name="사각형 742" width="2.85" height="47.72" transform="translate(75.41 149.76)" fill="#fff"/>
              <rect id="사각형_743" data-name="사각형 743" width="2.85" height="47.72" transform="translate(82.08 149.76)" fill="#fff"/>
              <rect id="사각형_744" data-name="사각형 744" width="2.85" height="47.72" transform="translate(88.75 149.76)" fill="#fff"/>
              <rect id="사각형_745" data-name="사각형 745" width="2.85" height="47.72" transform="translate(95.41 149.76)" fill="#fff"/>
              <rect id="사각형_746" data-name="사각형 746" width="2.85" height="47.72" transform="translate(102.08 149.76)" fill="#fff"/>
            </g>
            <g id="그룹_510" data-name="그룹 510">
              <rect id="사각형_747" data-name="사각형 747" width="2.85" height="47.72" transform="translate(75.41 201.82)" fill="#fff"/>
              <rect id="사각형_748" data-name="사각형 748" width="2.85" height="47.72" transform="translate(82.08 201.82)" fill="#fff"/>
              <rect id="사각형_749" data-name="사각형 749" width="2.85" height="47.72" transform="translate(88.75 201.82)" fill="#fff"/>
            </g>
          </g>
        </g>
        <g id="그룹_517" data-name="그룹 517">
          <rect id="사각형_750" data-name="사각형 750" width="41.01" height="53.18" transform="translate(166.79 58.53)" fill="url(#linear-gradient-8)"/>
          <rect id="사각형_751" data-name="사각형 751" width="34.01" height="53.18" transform="translate(138.99 58.53)" fill="#9ad7f7"/>
          <rect id="사각형_752" data-name="사각형 752" width="42.39" height="147.11" transform="translate(171.36 105.15)" fill="url(#linear-gradient-7)"/>
          <rect id="사각형_753" data-name="사각형 753" width="42.39" height="98.33" transform="translate(132.6 105.15)" fill="#7cc6f4"/>
          <g id="그룹_516" data-name="그룹 516">
            <g id="그룹_513" data-name="그룹 513">
              <rect id="사각형_754" data-name="사각형 754" width="2.85" height="20.54" transform="translate(140.03 113.54)" fill="#fff"/>
              <rect id="사각형_755" data-name="사각형 755" width="2.85" height="20.54" transform="translate(148.05 113.54)" fill="#fff"/>
              <rect id="사각형_756" data-name="사각형 756" width="2.85" height="20.54" transform="translate(156.08 113.54)" fill="#fff"/>
              <rect id="사각형_757" data-name="사각형 757" width="2.85" height="20.54" transform="translate(164.11 113.54)" fill="#fff"/>
            </g>
            <g id="그룹_514" data-name="그룹 514">
              <rect id="사각형_758" data-name="사각형 758" width="2.85" height="20.54" transform="translate(140.03 145.91)" fill="#fff"/>
              <rect id="사각형_759" data-name="사각형 759" width="2.85" height="20.54" transform="translate(148.05 145.91)" fill="#fff"/>
              <rect id="사각형_760" data-name="사각형 760" width="2.85" height="20.54" transform="translate(156.08 145.91)" fill="#fff"/>
              <rect id="사각형_761" data-name="사각형 761" width="2.85" height="20.54" transform="translate(164.11 145.91)" fill="#fff"/>
            </g>
            <g id="그룹_515" data-name="그룹 515">
              <rect id="사각형_762" data-name="사각형 762" width="2.85" height="20.54" transform="translate(140.03 178.37)" fill="#fff"/>
              <rect id="사각형_763" data-name="사각형 763" width="2.85" height="20.54" transform="translate(148.05 178.37)" fill="#fff"/>
              <rect id="사각형_764" data-name="사각형 764" width="2.85" height="20.54" transform="translate(156.08 178.37)" fill="#fff"/>
              <rect id="사각형_765" data-name="사각형 765" width="2.85" height="20.54" transform="translate(164.11 178.37)" fill="#fff"/>
            </g>
          </g>
        </g>
      </g>
      <g id="그룹_521" data-name="그룹 521">
        <path id="패스_248" data-name="패스 248" d="M77.09,205.21H24.26l24.73,19.85H94.67v-5.27Z" fill="#376ac4"/>
        <path id="패스_249" data-name="패스 249" d="M48.99,225.06v3.11H94.86v-3.66Z" fill="#376ac4"/>
        <path id="패스_250" data-name="패스 250" d="M24.26,205.21l-2.95,3.44,28.36,21.56.39-7.12Z" fill="#376ac4"/>
        <path id="패스_251" data-name="패스 251" d="M.34,225.24l23.91-20.03L49.2,225.15v73.38s-49.25.22-49.04,0-.6-73.29.17-73.29Z" fill="#9db4f4"/>
        <rect id="사각형_766" data-name="사각형 766" width="48.86" height="73.55" transform="translate(49.03 224.97)" fill="#6385ef"/>
        <rect id="사각형_767" data-name="사각형 767" width="10.88" height="14.55" transform="translate(17.57 231.15)" fill="#376ac4"/>
        <rect id="사각형_768" data-name="사각형 768" width="30" height="13.04" transform="translate(61.21 234.52)" fill="#376ac4"/>
        <g id="그룹_520" data-name="그룹 520">
          <rect id="사각형_769" data-name="사각형 769" width="31.81" height="31.73" transform="translate(6.43 266.9)" fill="#3e6dd5"/>
          <g id="그룹_519" data-name="그룹 519">
            <rect id="사각형_770" data-name="사각형 770" width="31.77" height="2.59" transform="translate(6.43 270.33)" fill="#2f5494"/>
            <rect id="사각형_771" data-name="사각형 771" width="31.77" height="2.59" transform="translate(6.43 276.12)" fill="#2f5494"/>
            <rect id="사각형_772" data-name="사각형 772" width="31.77" height="2.59" transform="translate(6.43 281.9)" fill="#2f5494"/>
            <rect id="사각형_773" data-name="사각형 773" width="31.77" height="2.59" transform="translate(6.43 287.69)" fill="#2f5494"/>
            <rect id="사각형_774" data-name="사각형 774" width="31.77" height="2.59" transform="translate(6.43 293.47)" fill="#2f5494"/>
          </g>
        </g>
      </g>
      <g id="그룹_524" data-name="그룹 524">
        <rect id="사각형_775" data-name="사각형 775" width="39.95" height="19.04" transform="translate(159.64 184.21)" fill="url(#linear-gradient-10)"/>
        <rect id="사각형_776" data-name="사각형 776" width="15.6" height="19.04" transform="translate(145.14 184.21)" fill="url(#linear-gradient-11)"/>
        <rect id="사각형_777" data-name="사각형 777" width="90.31" height="52.38" transform="translate(120.03 196.32)" fill="url(#linear-gradient-12)"/>
        <g id="그룹_522" data-name="그룹 522">
          <rect id="사각형_778" data-name="사각형 778" width="18.3" height="2.5" transform="translate(121.76 208.45)" fill="#92b4f7"/>
          <rect id="사각형_779" data-name="사각형 779" width="18.3" height="2.5" transform="translate(144.29 208.45)" fill="#92b4f7"/>
          <rect id="사각형_780" data-name="사각형 780" width="18.3" height="2.5" transform="translate(166.82 208.45)" fill="#92b4f7"/>
          <rect id="사각형_781" data-name="사각형 781" width="21.41" height="2.5" transform="translate(121.28 214.62)" fill="#92b4f7"/>
          <rect id="사각형_782" data-name="사각형 782" width="20.5" height="2.5" transform="translate(148.61 214.62)" fill="#92b4f7"/>
          <rect id="사각형_783" data-name="사각형 783" width="20.5" height="2.5" transform="translate(175.76 214.62)" fill="#92b4f7"/>
          <rect id="사각형_784" data-name="사각형 784" width="16.27" height="2.5" transform="translate(190.52 208.45)" fill="#92b4f7"/>
          <rect id="사각형_785" data-name="사각형 785" width="18.3" height="2.5" transform="translate(121.76 220.79)" fill="#92b4f7"/>
          <rect id="사각형_786" data-name="사각형 786" width="18.3" height="2.5" transform="translate(144.29 220.79)" fill="#92b4f7"/>
          <rect id="사각형_787" data-name="사각형 787" width="18.3" height="2.5" transform="translate(166.82 220.79)" fill="#92b4f7"/>
          <rect id="사각형_788" data-name="사각형 788" width="17.35" height="2.5" transform="translate(189.36 220.79)" fill="#92b4f7"/>
          <rect id="사각형_789" data-name="사각형 789" width="20.94" height="2.5" transform="translate(121.76 227.44)" fill="#92b4f7"/>
          <rect id="사각형_790" data-name="사각형 790" width="20.5" height="2.5" transform="translate(148.61 227.44)" fill="#92b4f7"/>
          <rect id="사각형_791" data-name="사각형 791" width="19.94" height="2.5" transform="translate(176.32 227.44)" fill="#92b4f7"/>
        </g>
        <rect id="사각형_792" data-name="사각형 792" width="29.49" height="54.8" transform="translate(94.65 196.32)" fill="url(#linear-gradient-13)"/>
        <rect id="사각형_793" data-name="사각형 793" width="114" height="53.09" transform="translate(112.75 245.4)" fill="url(#linear-gradient-14)"/>
        <g id="그룹_523" data-name="그룹 523">
          <rect id="사각형_794" data-name="사각형 794" width="26.22" height="2.5" transform="translate(114.16 263.25)" fill="#92b4f7"/>
          <rect id="사각형_795" data-name="사각형 795" width="25.96" height="2.5" transform="translate(148.48 263.25)" fill="#92b4f7"/>
          <rect id="사각형_796" data-name="사각형 796" width="25.29" height="2.5" transform="translate(183.92 263.25)" fill="#92b4f7"/>
          <rect id="사각형_797" data-name="사각형 797" width="26.22" height="2.5" transform="translate(114.16 276.39)" fill="#92b4f7"/>
          <rect id="사각형_798" data-name="사각형 798" width="25.96" height="2.5" transform="translate(148.48 276.39)" fill="#92b4f7"/>
          <rect id="사각형_799" data-name="사각형 799" width="25.29" height="2.5" transform="translate(183.92 276.39)" fill="#92b4f7"/>
          <rect id="사각형_800" data-name="사각형 800" width="21.65" height="2.5" transform="translate(114.53 269.88)" fill="#92b4f7"/>
          <rect id="사각형_801" data-name="사각형 801" width="21" height="2.5" transform="translate(143.34 269.88)" fill="#92b4f7"/>
          <rect id="사각형_802" data-name="사각형 802" width="21.71" height="2.5" transform="translate(172.22 269.88)" fill="#92b4f7"/>
          <rect id="사각형_803" data-name="사각형 803" width="21.78" height="2.5" transform="translate(201.55 269.88)" fill="#92b4f7"/>
          <rect id="사각형_804" data-name="사각형 804" width="21.65" height="2.5" transform="translate(114.53 282.77)" fill="#92b4f7"/>
          <rect id="사각형_805" data-name="사각형 805" width="21" height="2.5" transform="translate(143.34 282.77)" fill="#92b4f7"/>
          <rect id="사각형_806" data-name="사각형 806" width="21.71" height="2.5" transform="translate(172.22 282.77)" fill="#92b4f7"/>
          <rect id="사각형_807" data-name="사각형 807" width="21.78" height="2.5" transform="translate(201.55 282.77)" fill="#92b4f7"/>
        </g>
        <rect id="사각형_808" data-name="사각형 808" width="30.67" height="53.09" transform="translate(85.96 245.4)" fill="url(#linear-gradient-15)"/>
      </g>
    </g>
  </g>
</svg>
