<svg xmlns="http://www.w3.org/2000/svg" xmlns:xlink="http://www.w3.org/1999/xlink" width="160" height="72" viewBox="0 0 160 72">
  <defs>
    <clipPath id="clip-path">
      <rect id="사각형_19" data-name="사각형 19" width="160" height="72" transform="translate(0 0)" fill="none"/>
    </clipPath>
  </defs>
  <g id="logo" transform="translate(0 0.5)">
    <g id="그룹_2" data-name="그룹 2" transform="translate(0 -0.5)" clip-path="url(#clip-path)">
      <path id="패스_13" data-name="패스 13" d="M29.526,54.321a1.4,1.4,0,0,0,.042-.174h.092c-.058.091-.051.108-.134.174M41.808,41.616c.083.431-.493,1.54,0,2.21-.209.148-.417.3-.627.439a3.516,3.516,0,0,1-1.912-.488,3.783,3.783,0,0,1,.668-2.078c-.058-.307-.117-.621-.175-.928-.25-.09-.618-.372-.976-.306-.634.265-1.278.53-1.912.8-.175.141-.125.323-.359.439a.608.608,0,0,1-.576-.091c-.251.066-.117.124-.385.215,0,.008-.008.025-.008.033.058.332.117.663.175.985-.217,2.011-.251,6.174-1.6,7.143-.484.381-1.62-.082-2.313.224a7.578,7.578,0,0,0-1.244.753c-.208-.049-.142-.008-.225-.173-.151.057-.3.116-.443.173H29.8c.133.034.267.058.4.091-.166.332-1.495.679-2.23.7-.117-.074-.234-.15-.359-.224a6.089,6.089,0,0,0-.443-2.251c.1-.364.393-.6.268-.969A14.124,14.124,0,0,0,29,47.874c.368.124.852-.058,1.161,0a18.842,18.842,0,0,0,3.474.224c.058.1.117.206.175.306h.359c.417-.886.4-3.1.493-4.015.134-.431.267-.853.4-1.283-.008-.438.376-.786.493-1.25a.032.032,0,0,0-.008-.025c.008,0,.008,0,.017-.008a1.024,1.024,0,0,0-.017-.522,10.3,10.3,0,0,0-1.336-2.16c-.283-.249-1.035-.381-1.027-.885-.568.049-.861-.34-1.336-.439a16.26,16.26,0,0,0-1.7.04c-.174-.016-.225-.173-.308-.223-.226.016-.443.033-.668.042h-.042c-.042-.075-.092-.15-.134-.224-.551-.256-1.035.066-1.511-.042-2.163-.513-3.817-.613-4.852,1.366a1.135,1.135,0,0,1,.091.8,5.914,5.914,0,0,1,1.429,1.1c.033.174.058.357.091.53.426.53,1.312.894,1.512,1.5.844-.074,2.722-1.126,3.423-.4.8.454.251,1.738.092,2.516-.91.612-1.72.422-2.756.7-.476.165-.952.323-1.427.488-.927.165-2.454-.488-2.805.8-.276.256.142,1.472.534,1.9,1.219,1.307,1.169,4.237,2.539,5.909.35.431,2.254.828,2.672.4.1.016.075.008.092-.042.393-.3.425.091.893-.042.183-.049.183-.207.442-.264-.058-.133,0-.051-.091-.133.117-.074.234-.15.359-.224.058.042.117.091.175.133A1.632,1.632,0,0,1,30.035,54h.133c-.008.116.009.049-.042.174a.4.4,0,0,1,.042.09.41.41,0,0,0,.175-.488c.593-.306,1.186-.621,1.778-.927a2.385,2.385,0,0,0,1.561-.042c1.278-.646,1.061-2.35,1.561-3.575a.905.905,0,0,0,.134.04c.226.258.126,2.21.4,2.6a.913.913,0,0,1-.134.042c-.343,1.068,1.5,3.046,2.1,4.014.166-.033.325-.057.493-.09a.458.458,0,0,1,.359-.53v.223c.192-.042.385-.091.576-.132a1.35,1.35,0,0,1,.226-.439.457.457,0,0,1,.442.306h.175c.159-.34.334-.588.493-.886a6.39,6.39,0,0,0-.534-1.945c.3-.422-.259-3.137-.268-3.658.543-.1,1,.074,1.562-.042.074.034.15.058.225.091-.017.281-.034.562-.042.836a1.992,1.992,0,0,1-.226.042c.217.34-.334,1.092-.133,1.415.576.919.517,2.691,1.737,3.129a1.306,1.306,0,0,1,.759-.091c.276-.364.576-1,1.11-.836.1-.249.217-.364.309-.571.434-.72-.8-3.245-.134-4.636H44.7c.092-.372.243-.811.36-1.151.016-.885.033-1.763.042-2.648.117-.663.5-.985.625-1.5a1.921,1.921,0,0,0-.359-1.5c-.785-.7-2.972.091-3.557.3" transform="translate(2.772 5.195)" fill="#05ab9b" fill-rule="evenodd"/>
      <path id="패스_14" data-name="패스 14" d="M32.492,29.7a5.347,5.347,0,0,0,1.169-.454c.335-.108.693.025,1.07-.15.467.364.4,2.087.1,2.475a6.65,6.65,0,0,1-.868.762c.035.1.067.2.1.307v.049c-.226.124-.393.057-.56.256a2.13,2.13,0,0,0-.2-.256h.359c.017-.1.035-.2.051-.307-.3.042-.434-.04-.508.2a18.959,18.959,0,0,0-5.554.811.873.873,0,0,0-.508-.049,15.649,15.649,0,0,1,.148-3.029c.152-.372,1.981-.372,2.088-.355-.017-.066-.033-.133-.048-.2.382.025.216.082.458.256.092-.2.117-.207.31-.306.2.182.2.066.259.256a1.334,1.334,0,0,0,.559-.406c.082.017.168.034.258.049-.016.083-.034.166-.049.258.334-.066.326-.216.56-.307.259.034.533.083.809.141m2.388-4.3c-.15-.065-.058,0-.15-.1.15.058.057-.008.15.1m-1.019,8.485h-.048c.016-.066.033-.133.048-.2h.1Zm-.508.1c.016-.017.033-.033.049-.049h.2l.051.148c-.126-.042-.168.009-.3-.1m-1.829-1.01-.2.1c.016-.051.031-.1.048-.15h.151Zm-1.178-3.335c-.142.042-.083.025-.2-.049l.2.049m6.981.762.2.049.051.148h-.308c.024-.065.04-.132.057-.2M40.9,15.851c-.218-.348-.294-.6-.769-.7-.952-.207-2.956.587-4.074.555.049-.116.1-.232.15-.357h.309a1.788,1.788,0,0,0-.1-.256c.082-.049.165-.1.258-.148-.042-.125.025-.025-.1-.15l.309-.256c-.126-.264-.292-.19,0-.406l.1-.1c-.017.116-.034.232-.051.357.276-.116.259-.273.559-.406a13.146,13.146,0,0,0,.409-3.485c-.434-2.805-2-4.651-4.992-4.9-.043.058-1.9.315-2.188.456a8.254,8.254,0,0,0-3.007,2.881c.134.388.269.753.409,1.059a9.168,9.168,0,0,0,3.566.505c-.151-1.267,1.435-1.589,2.646-1.316,1.378,2.119-2.6,7.16-3.665,7.682-.484.223-1.535-.074-1.629-.049a5.532,5.532,0,0,1-2.037.306,7.75,7.75,0,0,0-.15-1.664c-.092-.588.208-1.183.1-1.664-.426-1.871-1.43-4.586-3.367-5.1-2.028-.547-3.848.306-5.4.654-.285.066-.3-.116-.409-.148-.36-.108-.759.133-1.118.2L15.892,10.4c.083.985,1.837,3.559,3.416,3.029.51-.165,1.044-.6,1.786-.4.844.232,1.652,3.41,1.837,4.8-1.754.621-4.541.388-5.711,1.366.051.066.1.133.151.2-.217.116-.175.249-.409.357a10.29,10.29,0,0,1,.2,1.514c.183.042.133.009.308-.049-.024.472,1.253,1.747,1.937,1.664a7.971,7.971,0,0,0,2.137-.306,16.149,16.149,0,0,0,1.679.1,25.516,25.516,0,0,1,5.452-.861c.493.877.3,2.326.259,3.534a5.723,5.723,0,0,1-4.583-.762,1.634,1.634,0,0,0-.61.148,3.942,3.942,0,0,0-.31,3.792c-.017.116-.033.232-.048.355.157.24.559.513.708.861.335.737-.516,3.468-.659,4.089a14.283,14.283,0,0,0,.1,2.674.9.9,0,0,0,.411.355c.125-.074.583.009.768-.148A6.817,6.817,0,0,1,26.338,35.5l1.578-.15c1.421-.34,2.674-.306,3.874-.7l.819.1c.952-.306,1.9-.6,2.856-.91l.049-.051v-.049c-.334-.082-.659-.173-1.018-.256a2.531,2.531,0,0,1,1.477-.7c-.04-.456,1.019-1.648,1.429-1.772a1.019,1.019,0,0,0,.049.355h.2c.084-.306.092-.885.26-.91-.117-.207-.184-.249-.51-.256v-.049c.083-.058.2-.133.325-.216-.091-.033-.042,0-.117-.091.134.058.084.017.134.083a1.736,1.736,0,0,1,.526-.232c-.134-.355-.292-.148-.46,0,.034-.348.069-.289,0-.555l.36.049c.049-.165.1-.34.15-.505H38.27a.446.446,0,0,0-.259.357c-.243-.125-.117-.348.1-.456,0-.331.008-.364-.26-.306.083-.19.066-.174.26-.256l.048-.1c-.267-.016-.165-.074-.308.1l-.2-.2.409-.1c-.057-.555-.217-.6-.259-1.209h-.359a1.723,1.723,0,0,0-.259-.91A21.982,21.982,0,0,0,34.84,25a18.342,18.342,0,0,1-2.7.049h-.1a6.629,6.629,0,0,0,.768-3.335c1.436-.862,3.958-.862,5.352-1.267h.1a1.521,1.521,0,0,0-.2-.2c1.979-.273,2.505-2.541,2.84-4.395" transform="translate(1.985 1.261)" fill="#ffa200" fill-rule="evenodd"/>
      <path id="패스_15" data-name="패스 15" d="M104.2,30.935c.166-.712,2.564-.3,3.156-1.415.417-.555-.76-2.55-1.019-2.98-.267-.754.551-1.1.51-1.722l-.049-.1a7.756,7.756,0,0,1-2.807,1.515c-.751.1-1.494.2-2.245.306-.042-.034-.551-3.419-.56-3.692.585-.587,1.812-.34,2.5-.91.25-.207.334-.547.61-.762.191-.141.008-.116.259-.049a2.788,2.788,0,0,0,.559-2.476c-.234-.2-.476-.4-.71-.6-.234-.38-.409-1.117-.818-1.316-.243-.57-1.871-.439-2.647-.2-.751.223-3.483,1.523-4.434,1.208h-.1c.151-1.159.61-2.715.818-3.692.051-.232-.191-.612-.15-.762.15-.53.493-.53.408-1.159,1.3-.463,3.082-.348,4.793-.6.576-.091,1.344.24,1.988-.049.3-.133.276-.439.71-.505-.042-1.077-.142-.7-.66-1.515-1.5-2.359-3.131-1.987-5.4-1.564-.1-.051-.2-.1-.309-.15a10.216,10.216,0,0,0-2.5.2,2.694,2.694,0,0,0-.2-.256,10.341,10.341,0,0,0-1.787-.256,9.138,9.138,0,0,0-1.528,1.265c-.751,1.06,1.018,3.675.818,4.9-.1.605-.918,3.8-.659,4.4.225.521.276,1.341.459,1.721a5.981,5.981,0,0,0,5.5,3.129c.367.6-1.27,4.245-1.988,4.594-.61.3-1.8.952-1.888.6-.183.091-.133.057-.2.256a2.149,2.149,0,0,0-1.278-.2c-.267-.182-.308-.439-.609-.6l-1.07.2c-1.36.952-.584,4.114.97,4.644.935.323,3.465-.555,4.484-.862-.034.083-.067.165-.1.256.291-.025.442-.016.559-.306l.2.049-.2.15c.317.116.551-.091.818,0,.075-.19.084-.058,0-.2v-.148c.285.042.351.132.51.148l.051.049c.025-.182,0-.1-.1-.256a6.708,6.708,0,0,0,1.737-.256c-.034.049-.067.1-.1.15h.559v-.258c.234-.016.166-.065.309.051.108.156,0,.04-.051.306.117-.034.234-.066.359-.1-.049-.133.051-.051-.1-.15l.1-.1c.259.082.51.165.768.256h.2v-.049c-.133-.1-.049-.049-.2-.049l-.1-.15c.576-.082,1.152-.165,1.737-.256-.083.348-.066.207.117.323" transform="translate(11.36 1.49)" fill="#ffa200" fill-rule="evenodd"/>
      <path id="패스_16" data-name="패스 16" d="M58.034,20.127c-.092-1.075-.292-2.574-.36-4.138.36-.348,1.053-.223,1.478-.4a15.264,15.264,0,0,0,3.007.1,10.47,10.47,0,0,1-.36,3.94,17.591,17.591,0,0,1-3.765.5m6.73-3.136v.148l-.051.049v.1c-.083-.108-.083-.1-.1-.307a.842.842,0,0,0,.151.009M57.174,31.186c.151.141.083,0,.051.2.166.033.342.065.508.1-.074-.1,0-.034-.1-.1v-.15c.343.017.393.074.51.306H58.4c-.083-.132-.017-.074-.15-.148v-.049h.2V31.6a6.59,6.59,0,0,1,1.578.2,7.3,7.3,0,0,0,2.137-.051l.1-.049a2.433,2.433,0,0,0,1.427.15c.777-.273,2.1-.555,3.007-.811a.594.594,0,0,0,.1-.456.446.446,0,0,1,.459-.15c.292-.753-.368-1.134-.459-1.82a7.174,7.174,0,0,1,.049-1.772H66.8a2.552,2.552,0,0,0-.61.505c-.192-.165-.109-.249-.051-.555-.408.182-.818.372-1.218.555H62.576v-.1c-.243-.372.159-1.059-.1-1.664-.292-.678-.777-1.341-1.019-1.92.117-.1.292-.156.459-.306.4.224.927.034,1.478.049.142-.944-1.177-1.489-.309-2.781.084-.1.1-.017.26-.1h.1c-.1-.182,0-.108-.259-.15.25-.555.742-.678,1.018-1.109.409-.646.126-1.506.919-1.772-.234-.479.058-.844-.051-1.109.117-.116.134-.124.359-.148-.049-.1-.1-.2-.15-.306-.426-.182.61-1.291.15-2.376a5.25,5.25,0,0,0-2.5-2.93A10.89,10.89,0,0,0,60.8,10.27c-2.356-.555-6.271-.216-7.9-1.267l-.609.148c-1,1.416,1.87,5.637,2.245,7.069.159.629-.058,2.558.051,2.674-.075.2,0,.116-.151.148-.259,1.35.243,4.437,1.578,4.594a1.331,1.331,0,0,0,.768-.762c.385.116.468.448.768.6l.969.2c1.11.7,1.127,2.624.819,3.84a32.578,32.578,0,0,1-5.144.762c-.376-.132-.751-.273-1.119-.4-.367-.058-.425.2-.818.2-.685,1.606,1.344,3.352,2.906,2.881.1.133.051.049.051.2.634.033,1.294.033,1.962.033" transform="translate(6.504 1.687)" fill="#ffa200" fill-rule="evenodd"/>
      <path id="패스_17" data-name="패스 17" d="M117.127,28.076c.166.5.844.961,1.069,1.565.393.173.861.033,1.119.306l.409-.1c.016-.034.033-.066.049-.1-.066-.3.417-.388.768-.4a11.184,11.184,0,0,0,.868-6.366c-.175-.993.183-2.086-.409-2.623.159-.034-.033-.7-.049-.811-.175-1-.126-2.045-.309-3.029-.209-1.118-.125-3.825-.61-4.545-.1-.049-.2-.1-.308-.15-.26-.53-.043-.811-.36-1.366a3.9,3.9,0,0,0-2.547-1.208c-.15.049-.308.1-.459.148-.208.456,1.1,4.056.969,5.762v2.226c.083.15.168.306.259.456.017.273-.334.737-.408,1.06a3.178,3.178,0,0,0,.15,1.208v3.94c-.075.827-.451,3.261-.2,4.03" transform="translate(14.528 1.717)" fill="#ffa200" fill-rule="evenodd"/>
      <path id="패스_18" data-name="패스 18" d="M77.964,12.32c-.409.579-.066,1.78-.051,2.475.051,1.78-.425,2.715.46,3.99.459.67,1.511.43,2.037.861.151-.124.342-.24.51-.355.159.148.393.157.61.256l-.309.049-.1.2a5.687,5.687,0,0,1,.768-.051c-.092-.148-.192-.181-.309-.306a2.352,2.352,0,0,0,1.378.049v.049c-.168.051-.342.1-.51.15v.148c.451.075.559-.173.868-.355.2-.116,1.195.431,1.529-.456l.308-.049c-.049.215-.058.165-.15.306v.049c.276-.09.334-.439.459-.654.2.066.175.091.309.2.308-.439.943-.505,1.277-.961a17.825,17.825,0,0,0-.359-2.524c-.175-.1-.151-.133-.359-.1.066-.15,0-.058.1-.15a.681.681,0,0,0-.309-.456c-.651-.2-2.605.679-3.315.862a2.03,2.03,0,0,1-2.7-2.07c-.292-.422-.576-.844-.868-1.267l-.969-.148c.058.141-.2.133-.309.256" transform="translate(9.711 2.069)" fill="#ffa200" fill-rule="evenodd"/>
      <path id="패스_19" data-name="패스 19" d="M73.02,25.544a15.852,15.852,0,0,1,.359,2.019,2.788,2.788,0,0,1,.768.406c.627-.439.952-.182,1.629-.355.074-.216-.026-.241.1-.2.718-.6.651-1.672.768-2.524a16.487,16.487,0,0,0-.151-4.3c-.017-.588-.034-1.176-.051-1.772-.442-2.64-.493-4.627-2.547-5.96a2.914,2.914,0,0,0-1.578-.7c-.835,1.324.819,2.731.61,4.444.1,1.043.2,2.086.309,3.129v4.75a5.214,5.214,0,0,0-.217,1.06" transform="translate(9.002 2.081)" fill="#ffa200" fill-rule="evenodd"/>
      <path id="패스_20" data-name="패스 20" d="M114.73,26.5c-.017-.1-.034-.2-.051-.306v-.049l.61.148.1-.148c.1-.182.034-.157-.049-.406.225-.3.618-.34.868-.6-.067-.29-.134-.571-.2-.861-.326-.6-1.078-.944-1.219-1.722h-.309c.142-.281-.025-.34-.049-.555-.385-.281-.568-.157-1.119-.4-.642-.406-1.294-.812-1.937-1.209l-.051-.1h.2c-.067-.083-.134-.165-.2-.256l.1-.049c.393.066.175-.2.409-.357-.083-.157-.042-.124-.2-.2a6.98,6.98,0,0,0,1.937-2.475l.768-.862c.593-1.655-2.254-3.7-3.465-2.98-.727.315-.477,1.515-.868,2.07a20.06,20.06,0,0,1-2.188,3.128c-.735.605-2.2,1-2.4,1.971-.183.363.368.463.051,1.059-.034.034-.067.066-.1.1.434.223.517.538.768.861-.084.165-.168.34-.259.505.71.87,2.688.133,3.365.049v-.2c.2-.082.192.017.409-.148,1.72,1.283,2.73,3.882,5.077,4" transform="translate(13.159 2.181)" fill="#ffa200" fill-rule="evenodd"/>
      <path id="패스_21" data-name="패스 21" d="M49.592,19.81v.148c-.192-.1-.125-.091-.151-.355.043.066.1.133.151.207m0-1.523v-.049c-.234.049-.151-.008-.259.148-.034-.016-.283-1.928-.51-2.574-.368-1.052-1.252-1.092-2.3-1.415-.217.132-.443.272-.66.4-.225.34-.142.762-.408,1.06.074.331.183.348.2.762.117-.033.234-.066.359-.1.935,2.044-.209,5.446.309,7.276-.067.065-.134.132-.2.2a14.386,14.386,0,0,0-.259,2.575c.126.4.953.612,1.219.762a4.255,4.255,0,0,0,2.088-.862c.1.133.2.273.309.406h.508c.71-1.49.217-4.081.1-5.5-.033-.439-.551-1.954-.308-2.326-.075-.273-.109-.224-.359-.306a1.888,1.888,0,0,0,.1-.406.1.1,0,0,0,.066-.049" transform="translate(5.677 2.36)" fill="#ffa200" fill-rule="evenodd"/>
      <path id="패스_22" data-name="패스 22" d="M68.564,18.793h.2c.292.571.776,1.084.61,1.721a2.9,2.9,0,0,1-2.088.2c-.017-.066-.034-.133-.049-.2.417-.769,1.052-1.068,1.327-1.721m-4.793,4.693a2.121,2.121,0,0,0,2.347,1.565c.5-.074.51.107.61-.049a5.947,5.947,0,0,1,1.578.555c.083-.083.166-.166.259-.256.033.115.066.232.1.355.183-.066.166-.108.259-.306l.61.148c.242-.3,2.605-4.362,2.5-5.405a4.564,4.564,0,0,0-1.069-2.574c-.259-.256-.852-.613-1.018-.911V16.1h-.051c-.117-.065-.234-.132-.359-.2-.067-.165-.134-.34-.2-.505l-.051-.049-.918-.2c-.368-.2-.409-.579-.919-.7a6.782,6.782,0,0,0-.659.505c.017.323.033.637.049.96-.785,1.854-2.547,3.51-3.106,5.6.259.661-.168,1.39.042,1.97" transform="translate(7.956 2.367)" fill="#ffa200" fill-rule="evenodd"/>
      <path id="패스_23" data-name="패스 23" d="M40.792,19.224c.3-.281.542-.091.71-.505.784.372,2.162,2.524,1.478,3.692l.259.049c-.2.1-.409.2-.61.306-.1-.148-.042-.049-.051-.256-.2.033-.15,0-.259.1-.1.174-.058.025,0,.2l-.1.2h-.2l.1-.15-.051-.148c-.7.091-1.035.53-1.987.555.091.091.276.1.408.148-.459.174-1.2-.256-1.678-.256-.049-.116-.1-.232-.15-.355-.417-.638,1.544-3.038,2.129-3.576m1.987,5.248-.15-.049c.017-.034.033-.066.049-.1h.1Zm-1.177.612.15-.148c-.025.083.051.066-.15.148m2.2-.91-.2-.148.15-.1c.084.034.168.066.26.1-.184-.67,1.11-.944,1.277-1.614a5.177,5.177,0,0,0-2.188-5.05,1.569,1.569,0,0,0-1.427-1.92c-.208.306-.476,1.233-.768,1.614-1.086,1.449-3.674,3.84-4.074,5.711-.8,3.658,5.862,2.947,6.972,1.407" transform="translate(4.591 2.491)" fill="#ffa200" fill-rule="evenodd"/>
      <path id="패스_24" data-name="패스 24" d="M87.45,19.929c.016-.034.033-.066.049-.1.151.066.058,0,.151.1Zm-.309.049-.051-.1.051-.049.151.1-.151.049m-.409-.049.259.049c-.159.049-.142.057-.259-.049m-.559.207h-.259v-.051l.659-.148h.1a1.032,1.032,0,0,1-.5.2m-.61,0,.051-.1c.033.034.066.066.1.1Zm-.818.3h-.36c-.033-.049-.066-.1-.1-.148l.151-.1c.192.066.2.066.309.2Zm-3.007.207v-.049c.61-.1,1.219-.2,1.837-.306l.51.049a7.418,7.418,0,0,1-2.347.306m-.459.1.051-.1h.049l-.1.1m8.409.654c-.326-.133-.283-.406-.659-.355v-.357c.117.017.233.034.359.049.017-.033.033-.066.049-.1a1.032,1.032,0,0,1-.1-.555c-.117-.049-.234-.1-.359-.148-.2.025-.166.04-.309-.1a.962.962,0,0,1,.66-.1c-.109-.29-.251-.273-.66-.256-1.1.447-2.562.025-3.615.555l.151.1a.812.812,0,0,0-.051.357h-.259c-.058-.191-.017-.265.1-.456l-.049-.1a40.028,40.028,0,0,1-6.881.454,1.045,1.045,0,0,1,.1.307c-.042.165.051.116-.2.148.034.133.066.273.1.406-.267.049-.234.016-.308.256a3.1,3.1,0,0,0,1.069,1.265c.042.026,2.547.2,2.547.2a.573.573,0,0,0,.359-.306c.208.049.15.049.15.148.234.4,1.678-.049,2.138.049a7.731,7.731,0,0,0,2.037-.256c.693-.124.952.141,1.528.1a8.712,8.712,0,0,1,1.837-.1,1.158,1.158,0,0,0,0-.96,1.251,1.251,0,0,0,.268-.249" transform="translate(9.71 2.993)" fill="#ffa200" fill-rule="evenodd"/>
      <path id="패스_25" data-name="패스 25" d="M84.646,26.1V26c.042.083.042.009,0,.1m1.678.8v.051l-.1.1-.1-.15Zm-.151-2.168a.572.572,0,0,1,.2.2c-.017.049-.034.1-.049.15-.209-.133-.175-.091-.151-.348m.1,2.574c.151-.348.058-.5.459-.7-.075-.655.083-1.4-.2-1.871-.384-.778-.744.463-.768.555-.117.091-.325.091-.559.256a1,1,0,0,1-.051-.357c-.15.066-.058,0-.15.1-.084.124-.034,0,0,.148-.126.074-.084.042-.2.049.033.066.066.133.1.2-.084.049-.168.1-.259.148-.226-.141-.092-.19-.46-.2.1.223.134.323,0,.454-.049-.116-.1-.232-.15-.355h-.051c-.134.124-.142.133-.151.406a4.058,4.058,0,0,1-1.018-.1c-.1.034-.083.157-.309.2.025-.34-.542-.456-.659-.811-.1-.29.183-.439.1-.862.017-.065.034-.132.049-.2-.033.066-.066.133-.1.2h-.049a2.654,2.654,0,0,0,.15-.654c-.049.034-.1.066-.15.1-.051-.116-.1-.232-.151-.355l.2-.1v-.15c-.408-.215-.551-.562-1.018-.762-.159.456-.268.663-.1,1.06a.557.557,0,0,1-.409.256c-.009.125.342.877.259,1.01-.034.538-.376,1.151-.409,1.772a5.224,5.224,0,0,0,.71,1.109,3.368,3.368,0,0,0,4.284-.15c-.017.049-.033.1-.049.15.2-.125.359-.4.61-.456l-.151-.1a1.718,1.718,0,0,1,.651.008" transform="translate(10.018 3.391)" fill="#ffa200" fill-rule="evenodd"/>
      <path id="패스_26" data-name="패스 26" d="M35.934,26.574h-.259l.1.2c.049-.066.1-.133.159-.2" transform="translate(4.455 3.881)" fill="#221e1f" fill-rule="evenodd"/>
      <path id="패스_27" data-name="패스 27" d="M39.509,26.267c-.008-.008-.008-.017-.017-.017s-.008.009-.017.009a.054.054,0,0,1,.034.008" transform="translate(4.93 3.841)" fill="#1f72a0" fill-rule="evenodd"/>
      <path id="패스_28" data-name="패스 28" d="M82.363,26.633a.873.873,0,0,1,.134-.042V26.5h-.134a.754.754,0,0,0-.042.133Z" transform="translate(10.281 3.872)" fill="#221e1f" fill-rule="evenodd"/>
      <path id="패스_29" data-name="패스 29" d="M98.043,27.222c-.058-.091-.051-.074-.134-.133.051.108-.049.066.134.133" transform="translate(12.227 3.945)" fill="#221e1f" fill-rule="evenodd"/>
      <path id="패스_30" data-name="패스 30" d="M95.339,27.58l.092-.091-.092-.091a1.226,1.226,0,0,0-.042.174.079.079,0,0,0,.042.008" transform="translate(11.901 3.984)" fill="#221e1f" fill-rule="evenodd"/>
      <path id="패스_31" data-name="패스 31" d="M94.728,27.57a.388.388,0,0,0,.042-.091h-.175c-.033.042-.058.091-.091.133a1.93,1.93,0,0,1,.225-.042" transform="translate(11.802 3.994)" fill="#221e1f" fill-rule="evenodd"/>
      <path id="패스_32" data-name="패스 32" d="M110.479,56.234c.016.935-1.587,2-2.89,1.854-.568-1.373,1.161-4.1,1.963-5.164,1.87.24.9,2.078.927,3.311m1.152-4.942c-.326-.406-.768-.463-.893-1.1a.847.847,0,0,0,.042-.132c.234-.058.476-.116.71-.174.91-.538.417-5.231.267-5.96-.083-.389.151-1.043,0-1.415.334-.422.777-.348,1.295-.621,2.129-1.126,3.374-.7,6.054-1.151,0-.43.191-.289.308-.661h-.225a.436.436,0,0,1-.042-.091h.308l.092-.091A10.632,10.632,0,0,0,119.1,38.7l.225-.173c-.268-.141-.217-.389-.092-.663-.1-2-3.9-2.384-5.611-2.384a.744.744,0,0,0-.267-.265c-.184-.7.242-2.177-.668-2.648,0,0-.276-1.084-.268-1.151-.5-.224-.9-.729-1.294-.927-.8-.034-1.6-.058-2.405-.091-.242.082-.493.314-.71.264a2.039,2.039,0,0,0-.4.663c.049.678.476,1.075.625,1.63a.926.926,0,0,1-.134.7c-.15.431.051,1.176-.042,1.63-.15.721-.334,1.483-.534,2.252-.042.165.117.165.134.224.066.207-.159.678-.225.836-.092.224.074.612.091.753.051.489-.234,1.052-.175,1.367a5.641,5.641,0,0,1,.175,1.191,14.5,14.5,0,0,0,.493,4.718c.151.8-.1,1.382.092,1.946.159.479.534.786.71,1.233h.359c-.017.091-.034.173-.042.264-.434.53-.861,1.06-1.295,1.589a20.326,20.326,0,0,0-2.4,4.718,3.48,3.48,0,0,0,1.469,4.28,5.138,5.138,0,0,0,2.847-.133c1.7-.769,4.217-3.783,3.607-6.489a7.176,7.176,0,0,0-1.737-2.748" transform="translate(13.143 4.359)" fill="#1b58fd" fill-rule="evenodd"/>
      <path id="패스_33" data-name="패스 33" d="M133.258,56.24c-.058.034-.117.058-.175.091a1.349,1.349,0,0,0-.174-.04c.1.281.233.156.4.04.092.125.025.009.042.174.059-.034.117-.058.175-.091.066-.083-.009-.025,0-.224a1.018,1.018,0,0,1,.134-.042v.265a5.307,5.307,0,0,1,2.354.173c.117.48-.2.721-.268,1.151-3.214,1.2-6.187,2.061-8.992,3.659a.435.435,0,0,1-.042-.091,4.693,4.693,0,0,1-.134-1.722c-.075-.017-.151-.033-.225-.042.376-.621.066-1.274.267-2.384.744-.4,4.584-.488,4.584-.488.2-.074.159-.116.226-.306-.059-.034-.117-.058-.175-.091.417-.042.835-.091,1.244-.133a1.09,1.09,0,0,1-.8.224c-.033.057-.058.116-.091.173a2.739,2.739,0,0,0,1.027-.132c.042-.116.091-.232.133-.357h.4c.042.174,0,.108.091.19m-.625,5.339c.017-.116.033-.232.042-.355.134.042.267.091.4.133-.142.074-.292.148-.442.223m-1.687.7h-.134v-.042c.175-.207.393-.24.627-.4.034.074.059.148.092.224-.2.074-.393.141-.585.215m-.852.355a1.137,1.137,0,0,1,.309-.4h.175a1.515,1.515,0,0,1-.485.4m-.217-6.307c-.025.091.051.058-.092.133.034-.049.059-.091.092-.133M126.5,47.988h-.042c.016-.074.033-.148.042-.223h.133c-.049.165-.042.132-.133.223M124,50.546a.434.434,0,0,0,.042-.091h.042a.427.427,0,0,1-.083.091m-.308.663c-.251.132-.5.264-.76.4.134-.165.268-.323.4-.488h.36Zm20.023-9.486a3.207,3.207,0,0,1-.309-1.192c-.276-.141-.451-.232-.493-.62-.367-.282-.133-.273,0-.663-.117-.017-.233-.034-.359-.042a.44.44,0,0,1-.042-.091c.117-.042.234-.091.359-.133v-.091a2.517,2.517,0,0,0-1.427-.57,3.608,3.608,0,0,1-1.561.794c.034-.091.058-.173.091-.264-.567.025-.9.323-1.294.223h-.042c.042.116.091.232.134.357-.385.074-.768.148-1.161.223v-.04c.15-.182.159-.157.442-.133a1.227,1.227,0,0,0,.042-.174v-.041a7.991,7.991,0,0,0-2.354.306c-.576-.1-1.161-.207-1.737-.306-.042.033-.092.057-.134.091-.066-.323-.459-.182-.668-.4a6.184,6.184,0,0,1-.8-2.557,1.41,1.41,0,0,1-.175.04c-.242-.521-.159-.8-.493-1.324-.485-.762-2.363-1.373-3.423-1.457-.3.091-.594.174-.894.265-.493.272-.376,1.043-.576,1.415.5.289.827,3.286.627,4.321-.075.389-.593,1.159-.443,1.589a4.748,4.748,0,0,1-.71.57c-.016.125-.033.025.092.174-.225.2-.166.654-.534.794l.175.174a14.068,14.068,0,0,0-.978,1.5c-.3.173-.593.355-.893.53-.918,1.225-3.782,3.724-5.879,3.525a4.338,4.338,0,0,0,.134-1.987,2.278,2.278,0,0,1,.226-.042c-.393-.794-.2-1.78-1.027-2.384-.368-.264-1.546-.389-1.646-.621-.993.042-1.369.621-1.561,1.548-.049.232-.166.224,0,.357-.117.107-.1.074-.225.091.049.463-.009,1.2.493,1.282-.092.074-.058.058-.226.091a3.722,3.722,0,0,0,.359.836,15.524,15.524,0,0,0-.225,2.294c.1.247.4.181.267.529a8.227,8.227,0,0,0,3.607,3.046c.5.224,1.253-.156,1.646-.132,1.118.082,4.458-2.484,5.118-3.312v-.042a.47.47,0,0,0-.092-.04,3.816,3.816,0,0,0-.8.753h-.175c.276-.57.91-.96,1.11-1.588.183-.042.125-.075.225.09.451-.148.477-.57.627-.927v-.173h-.042c-.134.116-.268.232-.4.355l-.092.091a.753.753,0,0,1-.042-.133c.183-.256.459-.555.71-.439.166.116.117.1.092.307.091-.034.174-.058.267-.091a12.438,12.438,0,0,0,.534,4.635c-.059.042-.117.091-.175.133-1.118-.033-1.277-.587-2.137-.836-.476.612-.978.232-1.6.53-.309.148-.393.505-.668.663a6.725,6.725,0,0,0,.759,2.424,16.9,16.9,0,0,1,.043,4.81c-.075.7-.5,2.243-.092,2.648-.058.034-.117.058-.175.091v.042c.075.042.151.091.225.133a1.826,1.826,0,0,0,.894,2.118,9.6,9.6,0,0,0,2.713-.794c.368-.34.919-.935.936-1.282.042-.034.091-.059.133-.091.084.132.042.04.042.223a1.072,1.072,0,0,1,.577.042c.417-.562.508-.3,1.11-.571.234-.19.476-.38.71-.57.334-.116.417.264.71.04.058-.116.117-.232.175-.355,0,0,1.127-.323,1.335-.4a1,1,0,0,0-.042.133.866.866,0,0,0,.134.04c.042-.091.092-.173.134-.264l.71-.224c.017.017.033.034.042.042-.042.074-.092.148-.134.224.175-.133.359-.265.534-.4-.034.042-.059.091-.092.133a.8.8,0,0,0,.134.042c.083-.116.042-.042.042-.174a11.7,11.7,0,0,1,1.6-.529,2.223,2.223,0,0,0-.043.223c.151-.116.3-.232.443-.355h.042c-.042.2-.042.148-.134.264l.092.091c.092-.133.175-.264.267-.4l.092-.091c.034.058.058.116.092.174.175-.142.259-.34.359,0,.217-.1.134-.058.134-.307.217-.156.142-.156.359-.04l.175-.4a.462.462,0,0,1,.091-.04c.043.057.092.116.134.173.109-.141.034-.1-.042-.264.209-.249.368-.547.534-.7A10.569,10.569,0,0,0,139,56.439a5.263,5.263,0,0,1-.134-1.812c-.058.033-.117.057-.175.09-.074-.223-.15-.438-.225-.661a4.963,4.963,0,0,0-2.539-1.366c-.217-.058-2.672-.414-2.713-.488.1-.812.208-1.614.308-2.425-.108-1.582.068-3.659-.133-5.165a.86.86,0,0,0,.042-.133,12.809,12.809,0,0,0,4.317.4c.25-.016.918.117,1.069.091a11.832,11.832,0,0,1,1.6-.4h.175c.083-.042,2.079-1.125,2.1-1.06.4-.091.4-.463.309-.794.551-.2.367-.663.718-.993" transform="translate(14.261 4.766)" fill="#1b58fd" fill-rule="evenodd"/>
      <path id="패스_34" data-name="패스 34" d="M105.454,36.1c-.735-1.531-2.93-1.945-4.676-1.987-.417.331-1.745.083-2.4.224a7.226,7.226,0,0,1-1.469.173c-.226-.042-.526-.306-.893-.264a5.026,5.026,0,0,0-3.073,1.366c-.459.579.008,1.026-.134,1.63.451.142.476.638.8.886a5.369,5.369,0,0,0,1.511.836c.768.281,2.6-.157,3.341-.264.542-.083.893.181,1.377.264.969,2.367-.074,7.027-1.069,8.691-.267.439-.034.762-.175,1.1a4.714,4.714,0,0,1-.71,1.366c.017.249.034.224.134.355-.517.53-.376,2.359-.092,2.955.434.927,2.255.9,2.807.224.1.042.208.091.308.133.493-.357,1.27-.53,1.7-.969.268-.332-.034-.786.092-1.06.091-.042.175-.091.267-.133a20.713,20.713,0,0,0,.493-2.293c-.017-.232-.033-.472-.042-.7a16.142,16.142,0,0,0,.576-2.6c.051-.4.409-1.126.226-1.457a.629.629,0,0,0,.308-.133c-.142-.215-.058-.273.092-.53h-.175a1.6,1.6,0,0,0,.309-1.018c.25.017.351-.372.442-.621h-.225a5.188,5.188,0,0,0,.668-3.575c.058-.034.117-.058.175-.091-.285-.514-.134-1.78-.485-2.508" transform="translate(11.58 4.822)" fill="#1b58fd" fill-rule="evenodd"/>
      <path id="패스_35" data-name="패스 35" d="M20.127,34.351c-1.553-.38-2.3,1.035-2.539,1.987-.125.5.285,1.01.36,1.366-.075.7-.151,1.382-.226,2.078-.317,2.1-.1,4.279-.442,6.622-.326,2.177-.61,5.446-.175,7.1.134.513-.268,1.954-.175,2.558a15.085,15.085,0,0,0,1.027,4.676,1.51,1.51,0,0,0,.8.174,2,2,0,0,1-.042-.224c.15.017.3.033.442.042v-.306a2.553,2.553,0,0,0,.893-.307c.534.034.71-.893.76-1.589.033-.555-.217-1.274-.134-1.812a10.181,10.181,0,0,0,.042-2.955,19.231,19.231,0,0,1,.092-5.115c.217-1.407-.1-3.344.133-4.809a15.036,15.036,0,0,0,.175-2.823c-.008-.314-.159-.388-.133-.57a3.579,3.579,0,0,0,.133-1.366,2.355,2.355,0,0,1,.134-.969c.251-1.143-.368-3.576-1.127-3.758" transform="translate(2.108 4.844)" fill="#05ab9b" fill-rule="evenodd"/>
      <path id="패스_36" data-name="패스 36" d="M48.153,42.8c.117-.074.234-.148.359-.224a1.226,1.226,0,0,1,.042.174c.61-.29,1.72.165,2.447-.174.685-.323.719-.7,1.161-1.324.385-.364.768-.737,1.161-1.1a4.26,4.26,0,0,0-.092-4.188c.017-.663-3.9-1.151-4.718-1.233-.576.621-1.769.008-2.313.621-.066.074-.159.993-.268,1.059a2.082,2.082,0,0,0,1.7,1.548V38l-.133.133c.576.6,3.3.522,4.316.4a1.816,1.816,0,0,1-.534,1.631c-.042-.091-.091-.174-.134-.265a13.37,13.37,0,0,0-1.335-.439c-.393-.057-.385.125-.76.091-.017.141-.008.091.042.224a1.018,1.018,0,0,1-.442-.133c-.083.116-.042.042-.042.174a.812.812,0,0,1-.8-.042c-.642.505-1.586.124-2,.927.075.108.049.108.175.174-.075.1-.151.206-.226.306a2.575,2.575,0,0,1,.4,2.648c-.166.282-.325.564-.492.837-.1.363.1.53-.175.7a1.227,1.227,0,0,1,.225.927c.1.116.209.232.309.357.793.19,1.754-.332,2.538-.53A17.8,17.8,0,0,1,51,46.033a16.593,16.593,0,0,1,1.778-.4,9.955,9.955,0,0,0,.309-1.367c-.151-.19-.3-.38-.442-.57-1.546-.7-2.255.173-3.383.621l-1.737.223c-.033-.033-.058-.057-.091-.091a3.887,3.887,0,0,1,.534-1.812c.142.066.108.033.183.165" transform="translate(5.68 4.9)" fill="#05ab9b" fill-rule="evenodd"/>
      <path id="패스_37" data-name="패스 37" d="M81.614,56.588h-.042a1.913,1.913,0,0,0,.042-.224,2,2,0,0,1,.042.224Zm-3.465-4.9c-.075.033-.151.057-.226.091a.5.5,0,0,1-.042-.091.476.476,0,0,1,.092-.042h.175Zm-1.119.579v-.133c.092.083.034,0,.092.133Zm-.175.083a.736.736,0,0,0-.134-.042.509.509,0,0,0,.043-.091,1.354,1.354,0,0,0,.174.042.427.427,0,0,1-.083.091M71.468,36.913h.042a.508.508,0,0,1,.043.091.5.5,0,0,0-.084-.091M82.95,42.956c-.125-.587-.935-2.26-1.829-2.028a2.662,2.662,0,0,0-1.6,1.589,2.118,2.118,0,0,0,.268,1.324c-.009.009-.117,1.929-.134,2.028.034.174.058.357.092.53-.2.7-1.17,1.772-1.2,2.161-.084-.058-.026,0-.092-.091-.283.074-.268.124-.268.4-.667.48-1.678.579-2.4,1.06-.159-.15-.827-.009-.844,0h-.042c.308-1.209-.309-2.095-.534-3.179.459-.057,1.06-.53,1.6-.4a2.342,2.342,0,0,0,.71-1.9h.442c-.042-.281.217-.48.4-.663V43.75a.845.845,0,0,0-.4.042V43.75c.168-.116.326-.232.493-.355v-.042c-.117-.141-.025-.091-.175-.042a.989.989,0,0,1-.042-.132c.81-.389,1.37-3.054.493-3.973a5.208,5.208,0,0,0-1.828-1.234,3.292,3.292,0,0,1-1.2-.488l-.042.042c-.376-.049-1.771-.3-2-.264l-.134.132a5.457,5.457,0,0,0-2.538-1.018c-.151.034-.3.058-.443.091-.091.265-.175.53-.267.8-.117.207.125.777.225,1.059a4.272,4.272,0,0,0,.534,1.367,6.852,6.852,0,0,0,4.225,1.547v.091c.376.389-.125,2.36-.359,2.864-1.227.191-2.772.877-4.276.621l-.267.265c-.125,1.407,1.737,1.539,2.23,2.731.151,1,.3,2,.442,3,.259.8,1.286,2.657,2.488,2.293a6.372,6.372,0,0,0,1.737-.439c.034-.091.058-.174.092-.265.134.034.268.058.4.091a6.546,6.546,0,0,0,1.512-.836c.034-.042.049-.049.092-.264.159.074.116.049.174.223.292-.124.636-.363.534-.62a2.269,2.269,0,0,0,.226.04c-.034-.04-.058-.091-.092-.132l.175-.174c-.1,1.068.117,2.831-.4,4.015.042-.034.091-.058.134-.091-.067.579-.134,1.837-.493,2.028.066.306.242.562.175.794a3.186,3.186,0,0,0,1.427.794c-.009.116.008.051-.042.174.15-.042.3-.091.442-.133v.133a.477.477,0,0,0,.092.042c.034-.042.058-.091.091-.133a.44.44,0,0,1-.091.042.963.963,0,0,1,.534-.488.434.434,0,0,0,.042-.091c-.1.033-.209.057-.309.091.067-.141-.025-.049.134-.091-.092-.157-.159-.216-.042-.357a.753.753,0,0,0-.042.133h.042c.276-.215.861-1.142.627-1.366.117-.074.234-.15.359-.224-.058-.141-.125-.116-.309-.173.058-.116.117-.232.175-.357-.091-.082-.108-.057-.175-.173a.4.4,0,0,1,.359-.174v-.355a1.225,1.225,0,0,0-.174-.042,2.242,2.242,0,0,0-.043.224.507.507,0,0,1-.091.042c.05-.249.1-.315.308-.4v-.173c-.074.042-.15.091-.225.133h-.042a.775.775,0,0,1,.309-.489,1.41,1.41,0,0,0-.175-.04c.017-.075.033-.15.042-.224h.267c-.025-.306-.091-.224-.042-.4h-.308c.125-.372.459-.3.267-.621.083-.207.142-.2.226-.439-.058-.042-.117-.091-.175-.133.083-.182.058-.2.267-.264a1.212,1.212,0,0,1-.075-.133h-.016v-.017c-.075-.141-.067-.182.042-.422-.092.017-.175.033-.268.042.092-.232.2-.174.042-.306.083-.207.117-.216.4-.224-.126-.224-.084-.372-.268-.488.017-.1.034-.207.042-.307.142-.065.117-.247-.042-.4.117-.107.058-.025.225.042a2.2,2.2,0,0,0-.174-.836,1.929,1.929,0,0,1,.225-.042c-.1-.182-.042-.066-.225-.133v-.091l.091-.091c.075.034.151.058.226.091-.058-.256-.043-.372-.134-.488.058-.033.117-.057.175-.091-.3-.355-.184-1.043-.042-1.548-.126-.033-.075.017-.175-.132.1-.273.025-.439.267-.489-.225-.521.117-.91-.134-1.457.2.066.243-.844.109-1.465" transform="translate(8.666 5.105)" fill="#05ab9b" fill-rule="evenodd"/>
      <path id="패스_38" data-name="패스 38" d="M85.148,44.855c.166-.141.058-.108.225,0,.084-.116-.025-.124.175-.224.168-.057.184,0,.359.042h.043c-.009-.116.008-.049-.043-.173a1.116,1.116,0,0,0,.627-.224c.259.017.175-.033.226.133h.225v-.224c.276-.148.276-.116.359-.355h.092c.059.116.117.232.175.355.342-.074.559-.108.71-.4.191.057.434.074.625.133.075-.091.058-.058.092-.224.134.042.268.091.4.133.143-.273.443-.182.668-.4a.47.47,0,0,1,.092-.04,1.225,1.225,0,0,1-.042-.174h.225c-.033.058-.059.116-.091.174.376-.108.71-.216,1.16-.357.058-.148.117-.3.175-.439-.292-.116-.1-.207-.4-.306.058-.157.092-.148.175-.265-.059-.654-.459-.9-.76-1.366.209.034.192.051.226-.223-1.553-.364-2.673.488-4.008.7-.551-.033-1.095-.057-1.646-.091.026-1.647-1.435-3.757-2.981-3.973-.074.042-.15.091-.225.133-.125.074-.117.141-.225.224-.034.256-.092.247.174.306a6.09,6.09,0,0,0,.4,2.731c-.042.439-.092.885-.134,1.324.142,1.9.893,4.048,2.922,3.063" transform="translate(10.21 5.192)" fill="#05ab9b" fill-rule="evenodd"/>
      <path id="패스_39" data-name="패스 39" d="M70.284,53.345c-.092.066-.058.1-.174.041a.435.435,0,0,0,.04-.091h.134ZM67.346,42.1h.091c-.033.042-.058.091-.091.133l-.092-.091c.033-.017.065-.026.092-.042m3.916,7.722h-.177a.521.521,0,0,1,.268-.355V49.33c-1.52.389-3.648,1.506-5.52,1.5h-.042a1.7,1.7,0,0,0,.134-.886.623.623,0,0,0,.4.042c.393-.728.109-1.705.492-2.731.076-.207.251-.19.31-.488-.135.091-.118.042-.175.223h-.043c.016-.264.033-.529.043-.794.057.042.116.091.175.133h.042c-.026-.769.583-2.64.307-3.311.184-.075.16-.034.227-.224-.21-.058-.2-.348-.359-.53.434-.165.132-2.144-.044-2.516a3.483,3.483,0,0,0-3.2-2.119c-.309.224-1.161.075-1.6.174-.868.207-1.879.306-2.714.488-.493-.042-.976-.091-1.469-.133-.376.133-.8.414-1.161.53a12.886,12.886,0,0,0,1.7,2.161c.217.264.225.661.493.885.351.555,3.832.323,4.225.133.585.6.3,4.619-.042,5.115a.872.872,0,0,1,.134-.042c-.476,1.341-.209,2.964-.627,4.412a4.851,4.851,0,0,1-3.156-.355c-.3.091-.334.306-.668.4a4.353,4.353,0,0,0,1.2,2.913c.76.564,5,.058,5.92.091a2.386,2.386,0,0,0,.041-.264c.359-.091.711-.174,1.07-.265.034.034.057.058.092.091a.442.442,0,0,1-.092.042c-.033.057-.058.116-.091.173a.427.427,0,0,0,.441-.355c.034.042.06.091.092.133.25-.091.317-.315.494-.4.425-.207,1.084-.224,1.561-.4a1.887,1.887,0,0,0,.225.042c-.151.1-.151.025-.225.224.133.057.049,0,.133.091.151-.034.3-.058.442-.091.009-.513.619-.663.759-1.151-.015-.364-.032-.737-.042-1.1.168-.728.526-1.29.711-1.987-.234.224-.451.431-.676.638" transform="translate(7.137 5.261)" fill="#05ab9b" fill-rule="evenodd"/>
      <path id="패스_40" data-name="패스 40" d="M12.059,48a8.044,8.044,0,0,1-3.873,2.078c-.376-2.359-.368-4.975-.76-7.143.134.074.109.04.175.173a2.464,2.464,0,0,0,1.111-.439c.767.15,2.587-.049,2.888.224.727.621.485,3.823.459,5.107m2.406-7.367C12.786,38.564,7.51,40,5.74,38.647c-.117-.108-.051-.049-.042-.224-.961-.025-1.036-.471-1.47-.62-.242-.083-.7,0-1.069-.133-.476.165-.952.323-1.427.488-.234.124-.251.38-.359.621.058.042.117.091.175.132-.092.075-.2.15-.3.224.067.224.2.141.268.265v.621c.083.232.376.289.442.438-.033.133-.058.265-.091.4a8.326,8.326,0,0,1,1.2,2.078c.166.463-.075,1.117.091,1.5a1.291,1.291,0,0,1,.174,1.1,1.292,1.292,0,0,0,.177.042,6.31,6.31,0,0,0-.134,1.812.434.434,0,0,1,.042.091c-.066.108-.175.049-.166.3.058.249.117.5.175.754a4.443,4.443,0,0,0-.134,1.1c.117.5.334.505.175.928.1.016.208.033.309.041-.026.564.517.845.274,1.375.519.107.9,1.688,1.7,1.945,1.161.372,1.88-.53,2.673-.927.25-.034.5-.058.759-.091.55-.224,1.093-.439,1.646-.663.133.017.265.034.4.042.568-.331,1.035-1.06,1.6-1.366h.31c.265-.157.308-.562.533-.754.308-.132.627-.264.935-.4a3.348,3.348,0,0,0,.443-.885c-.1.057-.208.116-.308.173.183-.654.008-1.556.576-1.9a1.787,1.787,0,0,1,.092-1.763c-.209-.074.066-.919.04-1.192-.133-1.29-.074-2.441-.984-3.567" transform="translate(0.156 5.267)" fill="#05ab9b" fill-rule="evenodd"/>
      <path id="패스_41" data-name="패스 41" d="M95.111,47.355a6.162,6.162,0,0,1-.177-1.06c-.15-.042-.3-.091-.442-.133.033-.314-.1-.363-.268-.57a16.276,16.276,0,0,0-6.9-.174c-.944.207-1.794-.057-2.621.133-.342-.165-.318-.431-.359-.885a.442.442,0,0,0-.092-.042c-.209.289-.326.082-.577.264-.434.315-.6,1.2-.8,1.722A4.852,4.852,0,0,0,85.106,48.9H86c.427-.141.844-.414,1.336-.53,1.011-.091,2.021-.173,3.023-.264,1.353.091,2.7.173,4.051.264.325-.133.317-.289.667-.355a.432.432,0,0,0-.307-.4c.082-.206.073-.223.342-.264" transform="translate(10.35 6.135)" fill="#05ab9b" fill-rule="evenodd"/>
      <path id="패스_42" data-name="패스 42" d="M124.9,44.852a1.225,1.225,0,0,0-.042.174c.042-.058.092-.116.134-.174Z" transform="translate(15.592 6.164)" fill="#7c1b2e" fill-rule="evenodd"/>
      <path id="패스_43" data-name="패스 43" d="M124.981,45.342c-.042-.157,0-.091-.092-.174a1.449,1.449,0,0,0-.042.174Z" transform="translate(15.591 6.203)" fill="#7c1b2e" fill-rule="evenodd"/>
      <path id="패스_44" data-name="패스 44" d="M39.758,45.365a.872.872,0,0,0-.134-.042V45.5h.042a.735.735,0,0,0,.092-.133" transform="translate(4.948 6.223)" fill="#3a9292" fill-rule="evenodd"/>
      <path id="패스_45" data-name="패스 45" d="M65.894,45.578c.058-.033.117-.057.175-.091-.042-.033-.092-.057-.134-.091a1.082,1.082,0,0,1-.042.182" transform="translate(8.229 6.232)" fill="#3a9292" fill-rule="evenodd"/>
      <path id="패스_46" data-name="패스 46" d="M52.173,45.846c-1.538.19-3.275.389-4.718.7a3.833,3.833,0,0,1-1.7-.132c-.376.124-.46.4-.76.4-.151.754.76,2.615,1.469,2.21.276.256.292.786.76.967.525.207,1.177-.19,1.561-.264,1.218-.091,2.43-.173,3.649-.264a4.208,4.208,0,0,1,1.469.132,6.292,6.292,0,0,0,2.447-.53c.543-.447.3-2.177.442-2.781-1.018-.24-1.769-.4-2.538-.571a7.526,7.526,0,0,1-2.087.133" transform="translate(5.618 6.271)" fill="#05ab9b" fill-rule="evenodd"/>
      <path id="패스_47" data-name="패스 47" d="M124.416,45.912c-.134.148-.268.3-.4.439a.809.809,0,0,0,.493-.439Z" transform="translate(15.488 6.296)" fill="#7c1b2e" fill-rule="evenodd"/>
      <path id="패스_48" data-name="패스 48" d="M81.289,46.4h.134a.752.752,0,0,1-.042-.133,1.179,1.179,0,0,0-.092.133" transform="translate(10.152 6.34)" fill="#3a9292" fill-rule="evenodd"/>
      <path id="패스_49" data-name="패스 49" d="M13.473,47.232c.058-.033.117-.057.175-.091-.034-.042-.058-.091-.092-.133a2.156,2.156,0,0,1-.083.224" transform="translate(1.683 6.433)" fill="#3a9292" fill-rule="evenodd"/>
      <path id="패스_50" data-name="패스 50" d="M93.488,47.758c-.034.042-.058.091-.092.133h.268c-.083-.133-.009-.074-.175-.133" transform="translate(11.664 6.527)" fill="#221e1f" fill-rule="evenodd"/>
      <path id="패스_51" data-name="패스 51" d="M62.457,48.06c.092-.091.125-.157,0-.264Z" transform="translate(7.8 6.531)" fill="#3a9292" fill-rule="evenodd"/>
      <path id="패스_52" data-name="패스 52" d="M91.266,51.852c.017-.1.034-.207.042-.306-.175-.133-.359-.265-.534-.4-.351.852-3.223.885-4.183,1.15-.166-.173-.325-.355-.493-.53-.242-.57.051-1.307-.042-1.812a3.314,3.314,0,0,0-.359-.836.86.86,0,0,0-.8-.265,3.986,3.986,0,0,0-.308,1.987c.016.224.033.439.042.663-.117.133-.234.264-.359.4.091.058-.134.8-.226,1.018.326.3.426,1.043.893,1.325,2.029,1.25,4.234-.265,6.188-.53-.042-.265.134-.34.4-.4l.175-.223c-.092-.074-.175-.15-.268-.224a3.8,3.8,0,0,0,.268-1.018Z" transform="translate(10.496 6.663)" fill="#05ab9b" fill-rule="evenodd"/>
      <path id="패스_53" data-name="패스 53" d="M37.226,49.009h-.092a1,1,0,0,0-.042.133c.159-.083.058.025.134-.133" transform="translate(4.632 6.683)" fill="#3a9292" fill-rule="evenodd"/>
      <path id="패스_54" data-name="패스 54" d="M81.138,50.13a.872.872,0,0,1,.134-.042c-.058-.165,0-.091-.134-.173-.017.066-.025.132-.042.207,0,.008.008.008.008.016.009-.008.017-.008.034-.008" transform="translate(10.128 6.796)" fill="#3a9292" fill-rule="evenodd"/>
      <path id="패스_55" data-name="패스 55" d="M48.929,50.593c-.359-.017-.71-.033-1.069-.042a3.6,3.6,0,0,0-.978-.439,1.928,1.928,0,0,1-.225.042,3.125,3.125,0,0,0-.042,2.251c.117.233.351.233.4.439,1.227.241,4.183-1.341,4.81-.794.593.34,0,1.531-.134,1.987-.659.389-1.378.116-2.23.355-1.127.315-2.3.364-3.29.663-.049-.141-.033-.074-.042-.173-.133.033-.267.057-.4.091-.175.247-.493.786-.359,1.1.15.332.751.745.893,1.151.342,1-.818,2.921.8,3.485l.576.223a5.313,5.313,0,0,0,3.381-2.424,3.41,3.41,0,0,1,1.11-1.192V57.14h-.042c-1.235.928-2.471,2.351-4.542,2.252-.568-1.44.017-2.607,1.336-2.864.51-.1.893.323,1.427.133a3.66,3.66,0,0,1,1.737-.265c.2-.314.092-1.233.534-1.415.026-.256.042-.389-.225-.488.2-.629.827-1.06,1.027-1.813.827-3.136-2.547-1.879-4.459-2.086" transform="translate(5.662 6.821)" fill="#05ab9b" fill-rule="evenodd"/>
      <path id="패스_56" data-name="패스 56" d="M67.72,51.813v.042c.151-.034.3-.058.442-.091v-.042c-.091-.017-.174-.033-.267-.042-.058.042-.117.083-.175.133" transform="translate(8.457 7.016)" fill="#3a9292" fill-rule="evenodd"/>
      <path id="패스_57" data-name="패스 57" d="M67.3,51.994c-.1.108-.125.083-.175.264.234-.04.476-.09.71-.132.034-.042.058-.091.092-.133a2.276,2.276,0,0,0-.226-.042c-.133.017-.267.025-.4.042" transform="translate(8.383 7.05)" fill="#3a9292" fill-rule="evenodd"/>
      <path id="패스_58" data-name="패스 58" d="M65.5,52.674c.034-.042.058-.091.092-.133H65.5Z" transform="translate(8.18 7.124)" fill="#3a9292" fill-rule="evenodd"/>
      <path id="패스_59" data-name="패스 59" d="M102.975,5.764l-.342-.224s-.393-3.17-.134-3.633.309-.919.944-1.026,1.786-.414,1.769.454.067,1.283-.25,1.739-1.988,2.69-1.988,2.69" transform="translate(12.789 0.655)" fill="#ffa200" fill-rule="evenodd"/>
      <path id="패스_60" data-name="패스 60" d="M104.924,7.36a4.229,4.229,0,0,1,.409-1.565c.334-.513.835-2.177,1.277-2.069s1.353-.8,1.9-.323.918-.414.5.935a2.761,2.761,0,0,1-1.227,1.88,6.069,6.069,0,0,1-1.837.861s-.384.439-.7.355a1.8,1.8,0,0,0-.325-.074" transform="translate(13.103 0.97)" fill="#ffa200" fill-rule="evenodd"/>
      <path id="패스_61" data-name="패스 61" d="M105.54,10.235l1.178-.646,1.745-.754s1.019-.811,1.678.026,1.378,1.423.651,1.63-1.119.67-1.837.613-.9-.414-1.453-.372-.651-.357-1.069-.273a1.448,1.448,0,0,1-.893-.224" transform="translate(13.18 1.622)" fill="#ffa200" fill-rule="evenodd"/>
    </g>
  </g>
</svg>
