<svg xmlns="http://www.w3.org/2000/svg" width="48" height="48" viewBox="0 0 48 48">
  <g id="prof_user" transform="translate(-741 -546)">
    <path id="패스_260" data-name="패스 260" d="M0,24A24,24,0,1,1,24,48,24,24,0,0,1,0,24" transform="translate(741 546)" fill="#fff"/>
    <path id="패스_261" data-name="패스 261" d="M152.52,339.36a10.685,10.685,0,0,0-9.268-5.36h-5.344a10.685,10.685,0,0,0-9.268,5.36,16.044,16.044,0,0,0,23.88,0" transform="translate(624.42 241.313)" fill="#d5def6"/>
    <path id="패스_262" data-name="패스 262" d="M197.887,175.023a6.012,6.012,0,1,0-6.012-6.012,6.012,6.012,0,0,0,6.012,6.012" transform="translate(567.113 396.281)" fill="#d5def6"/>
  </g>
</svg>
