<svg xmlns="http://www.w3.org/2000/svg" xmlns:xlink="http://www.w3.org/1999/xlink" width="752" height="500" viewBox="0 0 752 500">
  <defs>
    <clipPath id="clip-path">
      <rect id="사각형_113" data-name="사각형 113" width="752" height="500" transform="translate(1418.594 1030)" fill="#f79d00"/>
    </clipPath>
    <linearGradient id="linear-gradient" x1="0.01" y1="0.42" x2="0.321" y2="0.047" gradientUnits="objectBoundingBox">
      <stop offset="0" stop-color="#fabd28" stop-opacity="0"/>
      <stop offset="0.467" stop-color="#ffe645"/>
      <stop offset="1" stop-color="#ffc51b"/>
    </linearGradient>
    <clipPath id="clip-path-2">
      <rect id="사각형_112" data-name="사각형 112" width="366.399" height="380.46" fill="none"/>
    </clipPath>
    <linearGradient id="linear-gradient-2" x1="0.635" y1="0.805" x2="1" y2="1.363" gradientUnits="objectBoundingBox">
      <stop offset="0" stop-color="#fff"/>
      <stop offset="1" stop-color="#c0c9f9"/>
    </linearGradient>
    <linearGradient id="linear-gradient-3" x1="0.199" y1="-0.19" x2="0.572" y2="1.086" gradientUnits="objectBoundingBox">
      <stop offset="0" stop-color="#fff"/>
      <stop offset="1" stop-color="#d8def8"/>
    </linearGradient>
    <linearGradient id="linear-gradient-4" x1="0.994" y1="0.928" x2="0.123" y2="0.128" gradientUnits="objectBoundingBox">
      <stop offset="0" stop-color="#3255e8"/>
      <stop offset="1" stop-color="#6484eb"/>
    </linearGradient>
  </defs>
  <g id="sub_img2" transform="translate(-1418.594 -1030)" clip-path="url(#clip-path)">
    <g id="그룹_559" data-name="그룹 559" transform="translate(1433.587 1100)">
      <path id="패스_129" data-name="패스 129" d="M719.272,190.223c-20.582-19.76-31.9-43.779-50.133-64.737s-47.394-39.9-81.486-39.207c-53.331,1.073-84.236,42.988-135.244,48.071-44.654,4.458-91.142-15.322-116.558-40.634C320.643,78.54,311.414,60.687,298.7,44.344c-12.7-16.353-30.457-32-55.029-37.759-42-9.823-95.309,5.6-128.432,26.874C92.079,48.323,76.007,67.489,55.727,84.53,40,97.758,27.291,114.976,7.052,124.216c-2.417,1.1-4.75,2.146-7.052,3.146V269.678a10.592,10.592,0,0,0,6.937,2.844c20.166,1.083,39.175-9.75,54.394-23.03,28.1-24.53,47.071-57.591,70.414-86.694s54.31-55.8,91.486-58.852c21.239-1.75,42.311,4.469,62.3,11.875,32.238,11.947,53.258,32.738,80.872,51.217,29.988,20.051,60.414,38.613,95.381,48.685,36.592,10.531,78.528,11.718,113.214-2.51,13.312-5.458,25.2-12.979,38.248-18.822,13.041-5.864,28-10.073,42.665-8.052,20.259,2.792,35.238,16.52,48.477,29.395,14.968,14.551,28.124,31.6,47.311,42.04V214.9c-10.218-7.687-22.093-14.739-32.426-24.676" transform="translate(-14.701 -4.491)" fill="url(#linear-gradient)"/>
      <path id="패스_131" data-name="패스 131" d="M416.234,126.235c-10.977-11.147-19.894-23.663-32.031-34.03-12.376-10.587-23.553-15.566-40.939-19.465C284.591,59.553,222.618,82.987,162,78.808c-39.049-2.689-74.729-18.035-86.656-51.016C72.07,18.785,71.461,9.3,69.741,0H30.952C37.66,11.337,43.888,22.884,52.176,33.531c29.712,38.189,86.756,60.823,141.71,56.2,25.053-2.1,49.176-9.337,74.259-11.2,33.461-2.489,67.871,5.059,95.363,20.9,33.83,19.495,55.534,49.666,79.478,77.778V151.307q-13.961-12.1-26.752-25.073" transform="translate(294.021 -69.705)" fill="rgba(95,220,141,0.98)"/>
      <path id="패스_183" data-name="패스 183" d="M338.551,40.706c-8.764,8.9-15.883,18.892-25.573,27.169-9.881,8.452-18.8,12.427-32.684,15.54-46.843,10.528-96.321-8.181-144.721-4.845C104.4,80.717,75.912,92.969,66.39,119.3c-2.61,7.191-3.1,14.766-4.47,22.189H30.952c5.356-9.051,10.328-18.27,16.945-26.77C71.618,84.229,117.16,66.159,161.035,69.846c20,1.676,39.261,7.455,59.287,8.939,26.714,1.987,54.186-4.039,76.136-16.689C323.466,46.532,340.794,22.444,359.91,0V20.688q-11.146,9.662-21.358,20.018" transform="translate(38.117 304.449)" fill="#fac331"/>
    </g>
    <g id="그룹_74" data-name="그룹 74" transform="translate(1600.977 1173.7)" clip-path="url(#clip-path-2)">
      <path id="패스_184" data-name="패스 184" d="M27.3,67.741a14.623,14.623,0,0,0,3.786,2.591c6.309,3.035,13.723,2.2,20.626,1.044,20.513-3.433,40.576-9.111,60.586-14.775,9.795-2.772,6.595-17.1-.811-21.828-5.325-3.4-13.25-2.734-19.041-2.141A338.426,338.426,0,0,0,44.9,40.948c-7.226,1.81-15.488,4.394-19.732,11.011A12.259,12.259,0,0,0,27.3,67.741" transform="translate(151.043 209.341)" fill="#c3d7ff"/>
      <path id="패스_185" data-name="패스 185" d="M113.63,241.751c1.269,3.162,2.531,6.324,3.763,9.5a8.514,8.514,0,0,0,2.208,3.68c1.345,1.1,3.2,1.277,4.935,1.322,8.886.24,17.674-1.6,26.372-3.425l48.072-10.118c3.282-.691,6.9-1.6,8.743-4.394,4.612-6.993-1.585-18.906-2.727-26.147-3.583-22.729-.466-45.886,4.9-68.074,3.155-13.055,7.1-25.906,10.936-38.773,2.7-9.074,6.249-19.251.894-27.882-5.04-8.112-11.537-15.548-17.358-23.165-8.383-10.981-16.938-22.031-27.4-31.134A86.086,86.086,0,0,0,140.16,3.832C126.181.572,111.767.692,97.548,2.014c-16.78,1.57-33.463,4.447-50.13,6.91a6.669,6.669,0,0,0-1.54.24c-1.1.233-2.5.849-2.088,2.141a1.235,1.235,0,0,0,.27.458,17.209,17.209,0,0,0,5.19,12.9,27.432,27.432,0,0,0-.736,9.945,64.418,64.418,0,0,0,1.375,9.419C42.01,54.458,32.561,62.75,22.473,71.005c-4.649,3.808-9.72,7.917-13.13,12.949-3.042,4.492-.165,9.111,4.139,11.455,9.314,5.1,22.263,1.037,31.517-2.268a68.189,68.189,0,0,0,10-4.454Q46.363,99.5,37.714,110.3c-3.5,4.379-7.286,8.638-10.433,13.287-2.411,3.538-4.432,7.834-3.921,12.236,1.022,8.848,9.517,12.078,17.389,9.689a44.334,44.334,0,0,0,5.791-2.223l-1.825,5.243c-1.57,4.514-3.726,9.186-4.447,13.941-.706,4.717,1.367,7.263,6.1,7.684a31.051,31.051,0,0,0,13.04-2c14.977-5.476,23.39-18.928,30.451-32.591.053.481.1.954.143,1.435a1.408,1.408,0,0,0,.451.909A265.208,265.208,0,0,0,95.3,179.49c3.17,16.622,7.188,33.192,13.145,49.048,1.667,4.424,3.425,8.818,5.183,13.212" transform="translate(52.617 7.449)" fill="url(#linear-gradient-2)"/>
      <path id="패스_186" data-name="패스 186" d="M176.576,133.119H59.108Q53.4,121,47.7,108.872l-9.96-21.137c-2.621-5.588-16.652-26.808-12.844-31.788,1.457-1.9,4.1-2.336,6.482-2.644a313.7,313.7,0,0,0,70.516-17.772c15.593-5.934,18.493,11.049,25.2,21.58,16.224,25.508,32.494,51,49.484,76.006" transform="translate(157.854 223.38)" fill="url(#linear-gradient-3)"/>
      <path id="패스_187" data-name="패스 187" d="M62.949,7.614c-.12-1.277-3.635-1.194-3.523,0,1.112,11.455-10.178,19.394-20.3,21.077a29.134,29.134,0,0,1-9.209.068c-.616-.09-1.863-.053-2.171.631-.323.706.759,1.029,1.232,1.1a35.593,35.593,0,0,0,18.538-2.171c5.378-2.156,10.5-5.821,13.325-10.989a16.967,16.967,0,0,0,2.111-9.72" transform="translate(180.258 43.537)" fill="#c3d7ff"/>
      <path id="패스_188" data-name="패스 188" d="M67.5,30.93h0a8.319,8.319,0,0,1-10.764,4.755l-12.724-4.92a8.324,8.324,0,1,1,6.009-15.526l12.724,4.927A8.322,8.322,0,0,1,67.5,30.93" transform="translate(251.89 95.558)" fill="#042abf"/>
      <path id="패스_189" data-name="패스 189" d="M52.55,4.617c13.092,7.6,27.424,12.491,41.259,18.47,13.175,5.1,25.981,11.582,39.058,17.02,53.653,22.331,108.71,41.184,162.273,63.7,7.549,3.17,10.951,7.256,10.208,13.49a3.169,3.169,0,0,1-.135,1.7c-.345,1.127-.706,2.163-1.089,3.125-.368.969-.8,1.99-1.3,3.05a3.039,3.039,0,0,1-1.044,1.337c-3.65,5.123-8.908,5.851-16.63,3.117C230.393,110.2,176.981,87.068,122.277,67.464c-13.332-4.777-27.161-8.608-40.335-13.708C67.685,48.866,53.8,42.827,39,39.634a45.84,45.84,0,0,1-7.984-2.141q-.282-.113-.563-.248c-4.281-1.945-7.113-6.4-10.073-10A146.759,146.759,0,0,0,9.157,15.013c-.676-.653-5.679-4.807-7.609-7.954l-.038-.038a2.887,2.887,0,0,1-.8-1.127A1.249,1.249,0,0,1,.82,4.722a1.24,1.24,0,0,1,.706-.939A2.9,2.9,0,0,1,2.893,3.5H2.93c3.553-1.037,10.043-.736,10.981-.766A145.816,145.816,0,0,0,30.444,1.237C34.868.606,39.72-.693,44.054.463c.188.045.383.105.571.165A41.448,41.448,0,0,1,52.55,4.617" transform="translate(3.988 0.002)" fill="url(#linear-gradient-4)"/>
      <path id="패스_190" data-name="패스 190" d="M48.035.463A55.615,55.615,0,0,1,47.3,7.321a79.728,79.728,0,0,1-7.376,22.143A48.131,48.131,0,0,1,35,37.494a5.4,5.4,0,0,1-.571-.24c-4.281-1.945-7.106-6.407-10.073-10A145.6,145.6,0,0,0,13.145,15.02c-.676-.661-5.679-4.815-7.609-7.962L5.5,7.021,1.1,5.316a1.826,1.826,0,0,1-.961-2.4A1.955,1.955,0,0,1,1.1,1.853a1.7,1.7,0,0,1,1.367-.06L6.874,3.5h.038c3.553-1.037,10.043-.736,10.981-.766A145.66,145.66,0,0,0,34.425,1.237C38.849.606,43.7-.693,48.035.463" transform="translate(-0.001 0.002)" fill="#042abf"/>
      <path id="패스_191" data-name="패스 191" d="M113.024,105.352a6.193,6.193,0,0,0,.616-3.207c-.323-3.08-4.364-6.49-6.039-9.074-5.821-8.968-11.56-18-17.321-27.01Q81.627,52.518,73.064,38.915c-5.513-8.8-10.5-17.794-16.367-26.417-2.516-3.7-5.581-6.8-9.855-8.345C42.4,2.546,37.513,2.741,32.879,3.139c-4.064.361-8.225.759-12.018,2.366a11.4,11.4,0,0,0-7.136,8.886c-.706,4.484.548,9.194,1.487,13.55q1.555,7.177,3.665,14.226a249.19,249.19,0,0,0,10.8,28.948c1.66,3.771,4.387,7.3,6.452,10.929,1.705,2.989,3.538,5.911,5.213,8.923,1.78,3.2,2.877,6.865,4.755,9.967,3.65,6.062,6.467,12.048,7.849,19.131a48.085,48.085,0,0,1,.826,6.715c.06,1.112,2.794,1.209,3.4.383a55.168,55.168,0,0,0,28.8-.714A43.684,43.684,0,0,0,108.487,111.7c1.337-1.72,3.47-3.973,4.537-6.347" transform="translate(88.022 18.628)" fill="#fff"/>
      <path id="패스_192" data-name="패스 192" d="M26.478,16.11v-.023l-.113-.053a.406.406,0,0,0,.113.075" transform="translate(171.669 104.407)" fill="#fff"/>
      <path id="패스_193" data-name="패스 193" d="M26.478,16.11v-.023l-.113-.053a.406.406,0,0,0,.113.075" transform="translate(171.669 104.407)" fill="#4386fb"/>
      <path id="패스_194" data-name="패스 194" d="M135.593,123.917c-4.236-2.787-8.615-5.446-12.574-8.623a45.719,45.719,0,0,1-9.569-11.132c-5.821-8.976-11.552-18-17.313-27.018Q87.473,63.6,78.921,50q-3.583-5.712-7.113-11.44a2.246,2.246,0,0,0,.421-.03l15.015-2.208c1.78-.263,3.583-.533,5.363-.916a.936.936,0,0,0,.165.12,2.22,2.22,0,0,0,.931.263,26.15,26.15,0,0,0,2.434,4.71q2.051,3.312,4.176,6.58c1.885,2.907,3.373,4.972,6.745,6.212.548-2.193-2.066-4.725-3.162-6.4-1.36-2.088-2.689-4.184-4.011-6.287a25.557,25.557,0,0,1-3-5.814c7.887-3.951,10.531-13.19,12.326-21.279a16.015,16.015,0,0,0,.406-6.475,6.549,6.549,0,0,0-3.8-4.972,10.185,10.185,0,0,0-2.651-.473c-1.555-.128-3.1-.263-4.657-.391-9.186-.781-2.636,10.1-1.1,13.993a19.614,19.614,0,0,1,1.037,10.734c-1.3,6.978-6.775,7.879-12.829,8.766Q78.459,35.75,71.3,36.8a3.2,3.2,0,0,0-.5.12l-.406-.646c-2.6-4.229-5.048-8.585-7.842-12.686-2.509-3.7-5.573-6.805-9.855-8.353-4.447-1.607-9.329-1.412-13.963-1.007-4.056.353-8.225.751-12.01,2.359a11.413,11.413,0,0,0-7.143,8.886c-.706,4.484.548,9.194,1.495,13.558q1.555,7.177,3.665,14.219a186.593,186.593,0,0,0,10.11,26.342,2.417,2.417,0,0,0-1.8.443L22.159,89.674c-.6.533.105,1.067.631,1.232a2.745,2.745,0,0,0,2.4-.323q5.239-4.631,10.471-9.269c4.139,8.51,9.126,16.517,13.776,24.742.1.165.188.33.285.5q-3.391,4.079-6.79,8.142a18.647,18.647,0,0,0-5.325-8.2,23.144,23.144,0,0,0-14.6-5.543,30.174,30.174,0,0,0-9.547,1.172c-.578.165-1.164.676-.631,1.224a2.706,2.706,0,0,0,2.411.323c5.656-1.592,11.928-1.269,16.983,1.93a16.929,16.929,0,0,1,7.857,12.514l-3.448,4.131c-4.086,4.9-8.022,10.012-12.446,14.617a35.47,35.47,0,0,1-7.609,6.234c-.616.361-.638.916,0,1.277a2.884,2.884,0,0,0,2.486,0c5.183-3.035,9.149-7.5,12.957-12.048q4.349-5.194,8.675-10.4a14.559,14.559,0,0,1,9.126,5.183,14.994,14.994,0,0,1,2.824,5.145,27.634,27.634,0,0,1,.856,7.7c.023,1.247,3.545,1.239,3.515,0a27.923,27.923,0,0,0-1.052-8.42,16.178,16.178,0,0,0-3.433-5.7,17.84,17.84,0,0,0-10.471-5.536c.158-.2.315-.383.481-.571.631-.12,1.134-.413,1.112-.879,0-.15-.015-.285-.023-.428.548-.669,1.1-1.329,1.66-1.99q2.963-3.56,5.941-7.128c3.748,6.9,7.053,14.129,8.563,21.858a49.248,49.248,0,0,1,.834,6.715c.053,1.112,2.787,1.209,3.4.383a55.121,55.121,0,0,0,28.806-.714,43.664,43.664,0,0,0,21.5-14.752,36.963,36.963,0,0,0,3.823-6.047c.218-.436.481-.939.706-1.472a79.294,79.294,0,0,0,8.075,5.866c2.051,1.36,4.109,2.7,6.167,4.056a2.784,2.784,0,0,0,2.486,0c.684-.376.593-.879,0-1.269M50.2,83.011c-2.434,3.936-3.861,8.383-3.14,12.544-1.472-2.231-2.742-4.642-4.026-6.993a183.972,183.972,0,0,1-19.507-54.8c-.744-4.094-1.3-8.841,1.2-12.476,2.1-3.042,5.874-4.146,9.336-4.687a50.173,50.173,0,0,1,12.491-.751,15.783,15.783,0,0,1,5.979,1.675,16.494,16.494,0,0,1,4.785,4.071c2.929,3.523,5.108,7.714,7.489,11.6q4.18,6.816,8.413,13.6,4.259,6.839,8.578,13.64c1.532,2.411,8.187,9.8,1.788,8.811-8.1-1.247-16.735-.165-23.766,4.064a30.435,30.435,0,0,0-9.622,9.7m65.776,29.962a.362.362,0,0,1,0,.128,5.408,5.408,0,0,1-.053.6,8.1,8.1,0,0,1-.473,1.112c-.4.894-.834,1.765-1.3,2.621a37.371,37.371,0,0,1-3.207,4.875,39.728,39.728,0,0,1-8.458,8.03,43.03,43.03,0,0,1-23.713,7.669,52.831,52.831,0,0,1-14.752-1.75c-.2-.053-1.7-9.329-1.983-10.3A75.1,75.1,0,0,0,57.9,115.234c-1.96-4.206-5.964-8.09-6.332-12.927-.383-5.138,4.747-9.276,9.419-10,3.605-.556,7.4-.173,10.794-1.495,3.267-1.284,5.731-3.981,8.337-6.339,3.711-3.373,11.485-7.812,15.383-2.531,4.236,5.739,7.782,12.146,11.635,18.155,2.6,4.056,5.1,8.247,8.315,11.853l-.053.083c-.18.4.1.684.458.864-.075-.09.075-.12.113.053a2.583,2.583,0,0,0,.593.173,2.154,2.154,0,0,1-.593-.15" transform="translate(82.173 7.544)" fill="#c3d7ff"/>
      <path id="패스_199" data-name="패스 199" d="M13.759,0,11.425,11.442,0,13.772,11.425,16.1l2.335,11.443L16.1,16.079l11.3-2.307-11.3-2.3Z" transform="translate(62.276 217.77)" fill="#fff"/>
      <path id="패스_200" data-name="패스 200" d="M23.658,0,19.644,19.673,0,23.68,19.644,27.69l4.014,19.676,4.024-19.718L47.108,23.68,27.682,19.719Z" transform="translate(91.372 241.491)" fill="#fff"/>
      <path id="패스_201" data-name="패스 201" d="M23.658,0,19.644,19.673,0,23.68,19.644,27.69l4.014,19.676,4.024-19.718L47.108,23.68,27.682,19.719Z" transform="translate(319.291 186.386)" fill="#fff"/>
    </g>
  </g>
</svg>
